<?xml version="1.0" encoding="UTF-8"?>
<svg fill="none" viewBox="0 0 878 480" xmlns="http://www.w3.org/2000/svg">
<path d="m103.25 176.01h130.58s-7.927-12.428-21.48-6.214c0 0-2.545-13.048-11.303-13.277-2.399-0.178-4.797 0.344-6.904 1.502-2.108 1.158-3.834 2.903-4.97 5.022 0 0-10.178-15.821-25.722-12.428-4.325 0.836-8.283 2.999-11.323 6.188s-5.011 7.246-5.639 11.607c0 0-23.21-11.891-43.239 7.6z" fill="#E9E9E9"/>
<path d="m391.76 476v-232.53c0-1.244-0.579-2.417-1.567-3.174l-85.69-65.683c-1.467-1.124-3.513-1.097-4.95 0.065l-85.824 69.447c-0.939 0.759-1.484 1.902-1.484 3.109v228.77c0 2.209 1.791 4 4 4h171.52c2.209 0 4-1.791 4-4z" fill="#F6F6F6"/>
<g opacity=".3">
<path d="m317.35 243.98h-30.705c-1.104 0-2 0.895-2 2v42.582c0 1.104 0.896 2 2 2h30.705c1.104 0 2-0.896 2-2v-42.582c0-1.105-0.896-2-2-2z" fill="#616066" opacity=".3"/>
</g>
<g opacity=".3">
<path d="m317.35 307.44h-30.705c-1.104 0-2 0.895-2 2v42.582c0 1.104 0.896 2 2 2h30.705c1.104 0 2-0.896 2-2v-42.582c0-1.105-0.896-2-2-2z" fill="#616066" opacity=".3"/>
</g>
<g opacity=".3">
<path d="m317.35 370.88h-30.705c-1.104 0-2 0.896-2 2v42.582c0 1.105 0.896 2 2 2h30.705c1.104 0 2-0.895 2-2v-42.582c0-1.104-0.896-2-2-2z" fill="#616066" opacity=".3"/>
</g>
<path d="m689.74 476v-261.86c0-1.165-0.508-2.272-1.391-3.032l-85.686-73.716c-1.53-1.317-3.803-1.287-5.297 0.071l-85.83 77.949c-0.834 0.758-1.31 1.834-1.31 2.961v257.62c0 2.21 1.79 4 4 4h171.51c2.21 0 4-1.79 4-4z" fill="#F6F6F6"/>
<g opacity=".3">
<path d="m615.34 243.98h-30.704c-1.105 0-2 0.895-2 2v42.582c0 1.104 0.895 2 2 2h30.704c1.105 0 2-0.896 2-2v-42.582c0-1.105-0.895-2-2-2z" fill="#616066" opacity=".3"/>
</g>
<g opacity=".3">
<path d="m615.34 307.44h-30.704c-1.105 0-2 0.895-2 2v42.582c0 1.104 0.895 2 2 2h30.704c1.105 0 2-0.896 2-2v-42.582c0-1.105-0.895-2-2-2z" fill="#616066" opacity=".3"/>
</g>
<g opacity=".3">
<path d="m615.34 370.88h-30.704c-1.105 0-2 0.895-2 2v42.582c0 1.104 0.895 2 2 2h30.704c1.105 0 2-0.896 2-2v-42.582c0-1.105-0.895-2-2-2z" fill="#616066" opacity=".3"/>
</g>
<path d="m533.62 37.206h-179.52v442.79h179.52v-442.79z" fill="#E9E9E9"/>
<path d="m527.62 0h-166.92c-1.104 0-2 0.89543-2 2v20.656h170.92v-20.656c0-1.1046-0.895-2-2-2z" fill="#E9E9E9"/>
<path d="m537.56 22.678h-186.81c-1.105 0-2 0.8955-2 2v10.504c0 1.1045 0.895 2 2 2h186.81c1.105 0 2-0.8955 2-2v-10.504c0-1.1045-0.895-2-2-2z" fill="#B7B7B7"/>
<path d="m537.56 22.678h-186.81c-1.105 0-2 0.8955-2 2v10.504c0 1.1045 0.895 2 2 2h186.81c1.105 0 2-0.8955 2-2v-10.504c0-1.1045-0.895-2-2-2z" fill="#616066" opacity=".1"/>
<g opacity=".3">
<path d="m393.66 53.972h-20.365c-1.105 0-2 0.8954-2 2v42.582c0 1.1046 0.895 1.9999 2 1.9999h20.365c1.104 0 2-0.8953 2-1.9999v-42.582c0-1.1046-0.896-2-2-2z" fill="#616066" opacity=".3"/>
</g>
<g opacity=".3">
<path d="m393.66 117.44h-20.365c-1.105 0-2 0.895-2 2v42.582c0 1.105 0.895 2 2 2h20.365c1.104 0 2-0.895 2-2v-42.582c0-1.105-0.896-2-2-2z" fill="#616066" opacity=".3"/>
</g>
<g opacity=".3">
<path d="m393.66 180.88h-20.365c-1.105 0-2 0.896-2 2v42.582c0 1.105 0.895 2 2 2h20.365c1.104 0 2-0.895 2-2v-42.582c0-1.104-0.896-2-2-2z" fill="#616066" opacity=".3"/>
</g>
<g opacity=".3">
<path d="m393.66 244.32h-20.365c-1.105 0-2 0.896-2 2v42.582c0 1.105 0.895 2 2 2h20.365c1.104 0 2-0.895 2-2v-42.582c0-1.104-0.896-2-2-2z" fill="#616066" opacity=".3"/>
</g>
<g opacity=".3">
<path d="m393.66 307.78h-20.365c-1.105 0-2 0.896-2 2v42.582c0 1.105 0.895 2 2 2h20.365c1.104 0 2-0.895 2-2v-42.582c0-1.104-0.896-2-2-2z" fill="#616066" opacity=".3"/>
</g>
<g opacity=".3">
<path d="m393.66 371.22h-20.365c-1.105 0-2 0.896-2 2v42.582c0 1.105 0.895 2 2 2h20.365c1.104 0 2-0.895 2-2v-42.582c0-1.104-0.896-2-2-2z" fill="#616066" opacity=".3"/>
</g>
<g opacity=".3">
<path d="m433.93 53.972h-20.365c-1.104 0-2 0.8954-2 2v42.582c0 1.1046 0.896 1.9999 2.001 1.9999h20.364c1.105 0 2-0.8953 2-1.9999v-42.582c0-1.1046-0.895-2-2-2z" fill="#616066" opacity=".3"/>
</g>
<g opacity=".3">
<path d="m433.93 117.44h-20.365c-1.104 0-2 0.895-2 2v42.582c0 1.105 0.896 2 2.001 2h20.364c1.105 0 2-0.895 2-2v-42.582c0-1.105-0.895-2-2-2z" fill="#616066" opacity=".3"/>
</g>
<g opacity=".3">
<path d="m433.93 180.88h-20.365c-1.104 0-2 0.896-2 2v42.582c0 1.105 0.896 2 2.001 2h20.364c1.105 0 2-0.895 2-2v-42.582c0-1.104-0.895-2-2-2z" fill="#616066" opacity=".3"/>
</g>
<g opacity=".3">
<path d="m433.93 244.32h-20.365c-1.104 0-2 0.896-2 2v42.582c0 1.105 0.896 2 2.001 2h20.364c1.105 0 2-0.895 2-2v-42.582c0-1.104-0.895-2-2-2z" fill="#616066" opacity=".3"/>
</g>
<g opacity=".3">
<path d="m433.93 307.78h-20.365c-1.104 0-2 0.896-2 2v42.582c0 1.105 0.896 2 2.001 2h20.364c1.105 0 2-0.895 2-2v-42.582c0-1.104-0.895-2-2-2z" fill="#616066" opacity=".3"/>
</g>
<g opacity=".3">
<path d="m433.93 371.22h-20.365c-1.104 0-2 0.895-2 2v42.582c0 1.104 0.896 2 2.001 2h20.364c1.105 0 2-0.896 2-2v-42.582c0-1.105-0.895-2-2-2z" fill="#616066" opacity=".3"/>
</g>
<g opacity=".3">
<path d="m474.21 53.973h-20.365c-1.105 0-2 0.8955-2 2v42.582c0 1.1045 0.895 1.9999 2 1.9999h20.365c1.104 0 2-0.8954 2-1.9999v-42.582c0-1.1045-0.896-2-2-2z" fill="#616066" opacity=".3"/>
</g>
<g opacity=".3">
<path d="m474.21 117.44h-20.365c-1.105 0-2 0.895-2 2v42.581c0 1.105 0.895 2 2 2h20.365c1.104 0 2-0.895 2-2v-42.581c0-1.105-0.896-2-2-2z" fill="#616066" opacity=".3"/>
</g>
<g opacity=".3">
<path d="m474.21 180.88h-20.365c-1.105 0-2 0.895-2 2v42.582c0 1.104 0.895 2 2 2h20.365c1.104 0 2-0.896 2-2v-42.582c0-1.105-0.896-2-2-2z" fill="#616066" opacity=".3"/>
</g>
<g opacity=".3">
<path d="m474.21 244.32h-20.365c-1.105 0-2 0.896-2 2v42.582c0 1.105 0.895 2 2 2h20.365c1.104 0 2-0.895 2-2v-42.582c0-1.104-0.896-2-2-2z" fill="#616066" opacity=".3"/>
</g>
<g opacity=".3">
<path d="m474.21 307.78h-20.365c-1.105 0-2 0.896-2 2v42.582c0 1.105 0.895 2 2 2h20.365c1.104 0 2-0.895 2-2v-42.582c0-1.104-0.896-2-2-2z" fill="#616066" opacity=".3"/>
</g>
<g opacity=".3">
<path d="m474.21 371.22h-20.365c-1.105 0-2 0.895-2 2v42.582c0 1.104 0.895 2 2 2h20.365c1.104 0 2-0.896 2-2v-42.582c0-1.105-0.896-2-2-2z" fill="#616066" opacity=".3"/>
</g>
<g opacity=".3">
<path d="m514.46 53.972h-20.365c-1.105 0-2 0.8954-2 2v42.582c0 1.1046 0.895 1.9999 2 1.9999h20.365c1.104 0 2-0.8953 2-1.9999v-42.582c0-1.1046-0.896-2-2-2z" fill="#616066" opacity=".3"/>
</g>
<g opacity=".3">
<path d="m514.46 117.44h-20.365c-1.105 0-2 0.895-2 2v42.582c0 1.105 0.895 2 2 2h20.365c1.104 0 2-0.895 2-2v-42.582c0-1.105-0.896-2-2-2z" fill="#616066" opacity=".3"/>
</g>
<g opacity=".3">
<path d="m514.46 180.88h-20.365c-1.105 0-2 0.895-2 2v42.582c0 1.104 0.895 2 2 2h20.365c1.104 0 2-0.896 2-2v-42.582c0-1.105-0.896-2-2-2z" fill="#616066" opacity=".3"/>
</g>
<g opacity=".3">
<path d="m514.46 244.32h-20.365c-1.105 0-2 0.896-2 2v42.582c0 1.105 0.895 2 2 2h20.365c1.104 0 2-0.895 2-2v-42.582c0-1.104-0.896-2-2-2z" fill="#616066" opacity=".3"/>
</g>
<g opacity=".3">
<path d="m514.46 307.78h-20.365c-1.105 0-2 0.896-2 2v42.582c0 1.105 0.895 2 2 2h20.365c1.104 0 2-0.895 2-2v-42.582c0-1.104-0.896-2-2-2z" fill="#616066" opacity=".3"/>
</g>
<g opacity=".3">
<path d="m514.46 371.22h-20.365c-1.105 0-2 0.895-2 2v42.582c0 1.104 0.895 2 2 2h20.365c1.104 0 2-0.896 2-2v-42.582c0-1.105-0.896-2-2-2z" fill="#616066" opacity=".3"/>
</g>
<path d="m476.2 436.1h-64.642v43.88h64.642v-43.88z" fill="#616066" opacity=".3"/>
<rect y="462.65" width="877.89" height="17.352" fill="#E9E9E9"/>
<path d="m607.73 50.42h179.3s-10.864-17.068-29.5-8.534c0 0-3.471-17.919-15.522-18.233-3.29-0.2398-6.579 0.4789-9.469 2.0689-2.89 1.5901-5.257 3.9835-6.815 6.8907 0 0-13.977-21.727-35.323-17.068-5.941 1.1483-11.376 4.1185-15.551 8.498-4.174 4.3794-6.881 9.9506-7.744 15.939 0 0-31.829-16.329-59.38 10.438z" fill="#E9E9E9"/>
<path d="m596.88 458.12-7.076-35.242c-0.151-0.753-0.813-1.294-1.58-1.294-0.765 0-1.425 0.537-1.579 1.287l-7.252 35.249-5.39 3.302v0.976h28.093v-0.976l-5.216-3.302z" fill="#FE6100"/>
<path d="m602.28 461.42h-28.092v1.23h28.092v-1.23z" fill="#616066" opacity=".2"/>
<path d="m589.82 423.09c-0.153-0.752-0.814-1.291-1.581-1.291-0.766 0-1.427 0.539-1.58 1.291l-7.163 35.134h17.487l-7.163-35.134z" fill="#616066" opacity=".1"/>
<path d="m595.36 450.26h-14.34l2.583-12.831h9.147l2.561 12.585 0.049 0.246z" fill="#E9E9E9"/>
<path d="m539.25 389.02c0.272-0.579 1.009-0.758 1.516-0.369l14.749 11.34c0.425 0.327 0.516 0.931 0.207 1.369l-23.874 33.858c-0.313 0.445-0.213 1.06 0.226 1.382l16.834 12.363c0.388 0.285 0.518 0.806 0.309 1.24l-2.037 4.229c-0.26 0.538-0.929 0.73-1.434 0.412l-28.079-17.682c-0.427-0.269-0.586-0.813-0.372-1.27l21.955-46.872z" fill="#616066"/>
<path d="m647.91 247.56c3.607 0 6.934 1.943 8.708 5.083l40.318 71.396v71.282l-45.164-106.33h-8.318l-86.277 107.91h-7.528l88.882-144.58c1.819-2.959 5.044-4.763 8.519-4.763h0.86z" fill="#B7B7B7"/>
<path d="m778.96 413.36h-92.935c-3.47 0-6.283-2.812-6.283-6.282v-34.199c0-3.47 2.813-6.283 6.283-6.283h92.935c3.47 0 6.283 2.813 6.283 6.283v34.199c0 3.47-2.813 6.282-6.283 6.282z" fill="#B7B7B7"/>
<path d="m778.54 376.71h-9.108v-57.522c0-2.515 2.039-4.554 4.554-4.554s4.554 2.039 4.554 4.554v57.522z" fill="#B7B7B7"/>
<path d="m756.82 393.05c1.105 1e-3 2.001-0.895 2.001-2v-87.492c0-1.104-0.895-2-2-2h-51.916c-4.568-2e-3 -8.982 1.656-12.42 4.665s-5.666 7.165-6.269 11.694l-9.582 72.816c-0.157 1.197 0.774 2.26 1.982 2.261l78.204 0.056z" fill="#FE6100"/>
<path d="m697.4 365.27h38.703c0.422 4e-3 0.841-0.056 1.245-0.177 0.91-0.279 1.705-0.846 2.264-1.616 0.56-0.769 0.854-1.7 0.838-2.652v-46.759c0-1.105-0.896-2-2-2h-25.541c-0.923-6e-3 -1.843 0.086-2.746 0.276-3.529 0.595-6.722 2.448-8.99 5.216-1.888 2.247-3.088 4.991-3.457 7.903l-4.643 34.91c-0.072 0.612-0.014 1.233 0.17 1.822s0.49 1.132 0.898 1.595c0.409 0.462 0.91 0.833 1.471 1.089 0.562 0.255 1.171 0.389 1.788 0.393z" fill="#fff"/>
<g fill="#E9E9E9" opacity=".5">
<path d="m695.05 345.46 33.764-33.388h-15.904c-0.922-6e-3 -1.843 0.086-2.746 0.276-0.856 0.142-1.696 0.367-2.509 0.672l-9.049 8.95c-0.423 1.107-0.715 2.261-0.869 3.437l-2.687 20.053z" opacity=".8"/>
<path d="m697.17 365.25h12.348l30.939-30.563v-12.19l-43.287 42.753z" opacity=".8"/>
<path d="m714.37 365.27h1.877l24.202-23.926v-1.857l-26.079 25.783z" opacity=".8"/>
</g>
<path d="m777.72 375.92c0 0.742-0.22 1.468-0.633 2.085-0.412 0.618-0.999 1.099-1.685 1.383-0.685 0.284-1.44 0.358-2.168 0.213-0.729-0.144-1.397-0.502-1.922-1.027s-0.883-1.194-1.028-1.922-0.07-1.483 0.214-2.169 0.765-1.272 1.382-1.684c0.618-0.413 1.344-0.633 2.086-0.633 0.493 0 0.981 0.097 1.436 0.286 0.456 0.188 0.87 0.465 1.218 0.813 0.349 0.349 0.625 0.763 0.814 1.218 0.189 0.456 0.286 0.944 0.286 1.437z" fill="#616066"/>
<path d="m777.72 389.3c0 0.742-0.22 1.468-0.633 2.085-0.412 0.617-0.999 1.099-1.685 1.383-0.685 0.284-1.44 0.358-2.168 0.213-0.729-0.144-1.397-0.502-1.922-1.027s-0.883-1.194-1.028-1.922-0.07-1.483 0.214-2.169 0.765-1.272 1.382-1.684c0.618-0.413 1.344-0.633 2.086-0.633 0.493 0 0.981 0.097 1.436 0.286 0.456 0.188 0.87 0.465 1.218 0.813 0.349 0.349 0.625 0.763 0.814 1.218 0.189 0.456 0.286 0.944 0.286 1.437z" fill="#616066"/>
<path d="m651.36 274.92c0 0.743-0.22 1.468-0.632 2.086-0.413 0.617-0.999 1.098-1.685 1.382s-1.441 0.359-2.169 0.214-1.397-0.503-1.922-1.027c-0.525-0.525-0.882-1.194-1.027-1.923-0.145-0.728-0.071-1.482 0.213-2.168 0.285-0.686 0.766-1.273 1.383-1.685s1.343-0.633 2.086-0.633c0.492 0 0.981 0.097 1.436 0.286s0.869 0.465 1.218 0.814c0.348 0.348 0.625 0.762 0.814 1.218 0.188 0.455 0.285 0.943 0.285 1.436z" fill="#616066"/>
<path d="m651.36 260.88c0 0.742-0.22 1.468-0.632 2.085-0.413 0.618-0.999 1.099-1.685 1.383s-1.441 0.358-2.169 0.213c-0.728-0.144-1.397-0.502-1.922-1.027s-0.882-1.194-1.027-1.922-0.071-1.483 0.213-2.169c0.285-0.686 0.766-1.272 1.383-1.684 0.617-0.413 1.343-0.633 2.086-0.633 0.993 5e-3 1.945 0.402 2.648 1.105s1.1 1.655 1.105 2.649z" fill="#616066"/>
<path d="m773.99 421.66h-67.134v-8.317h67.134v8.317z" fill="#B7B7B7"/>
<path d="m809.41 421.68h-160.74c-5.475 0-10.727 2.175-14.599 6.047-3.871 3.872-6.046 9.123-6.046 14.599s2.175 10.727 6.046 14.599c3.872 3.872 9.124 6.047 14.599 6.047h160.74c5.475 0 10.727-2.175 14.599-6.047 3.871-3.872 6.047-9.123 6.047-14.599s-2.176-10.727-6.047-14.599c-3.872-3.872-9.124-6.047-14.599-6.047z" fill="#B7B7B7"/>
<path d="m808.52 427.7h-158.98c-3.877 0-7.596 1.54-10.337 4.282-2.742 2.742-4.282 6.461-4.282 10.338 0 3.878 1.54 7.596 4.282 10.338 2.741 2.742 6.46 4.282 10.337 4.282h158.98c3.877 0 7.596-1.54 10.338-4.282 2.741-2.742 4.282-6.46 4.282-10.338 0-3.877-1.541-7.596-4.282-10.338-2.742-2.742-6.461-4.282-10.338-4.282z" fill="#B7B7B7"/>
<path d="m705.65 442.32c0 2.119-0.628 4.19-1.806 5.951-1.177 1.761-2.851 3.134-4.809 3.944-1.957 0.81-4.111 1.021-6.189 0.606s-3.986-1.437-5.483-2.936c-1.496-1.5-2.515-3.41-2.926-5.488-0.411-2.079-0.196-4.232 0.618-6.189 0.813-1.956 2.189-3.627 3.952-4.801 1.764-1.174 3.836-1.799 5.955-1.795 1.405 0 2.797 0.277 4.095 0.815 1.298 0.539 2.477 1.328 3.47 2.322 0.993 0.995 1.779 2.176 2.315 3.475s0.811 2.691 0.808 4.096z" fill="#616066"/>
<path d="m739.73 442.32c0 2.119-0.629 4.19-1.806 5.951-1.178 1.761-2.852 3.134-4.809 3.944-1.958 0.81-4.112 1.021-6.19 0.606s-3.986-1.437-5.482-2.936c-1.497-1.5-2.515-3.41-2.926-5.488-0.411-2.079-0.196-4.232 0.617-6.189 0.814-1.956 2.189-3.627 3.953-4.801 1.763-1.174 3.835-1.799 5.954-1.795 1.405 0 2.797 0.277 4.095 0.815 1.298 0.539 2.477 1.328 3.47 2.322 0.993 0.995 1.78 2.176 2.316 3.475s0.81 2.691 0.808 4.096z" fill="#616066"/>
<path d="m671.57 442.32c0 2.118-0.628 4.188-1.804 5.949-1.177 1.761-2.849 3.133-4.806 3.944-1.957 0.81-4.11 1.022-6.187 0.609s-3.985-1.433-5.483-2.93c-1.497-1.498-2.517-3.406-2.93-5.483s-0.201-4.23 0.609-6.187c0.811-1.957 2.183-3.629 3.944-4.806 1.761-1.176 3.831-1.804 5.949-1.804 2.84 0 5.564 1.128 7.572 3.136s3.136 4.732 3.136 7.572z" fill="#616066"/>
<path d="m773.82 442.32c0 2.119-0.628 4.19-1.806 5.951-1.177 1.761-2.851 3.134-4.809 3.944-1.957 0.81-4.111 1.021-6.189 0.606s-3.986-1.437-5.483-2.936c-1.496-1.5-2.515-3.41-2.926-5.488-0.41-2.079-0.196-4.232 0.618-6.189 0.813-1.956 2.189-3.627 3.953-4.801 1.763-1.174 3.835-1.799 5.954-1.795 1.405 0 2.797 0.277 4.095 0.815 1.298 0.539 2.477 1.328 3.47 2.322 0.993 0.995 1.779 2.176 2.315 3.475s0.811 2.691 0.808 4.096z" fill="#616066"/>
<path d="m807.89 442.32c0 2.119-0.629 4.19-1.806 5.951-1.178 1.761-2.851 3.134-4.809 3.944s-4.112 1.021-6.19 0.606-3.986-1.437-5.482-2.936c-1.497-1.5-2.515-3.41-2.926-5.488-0.411-2.079-0.196-4.232 0.617-6.189 0.814-1.956 2.189-3.627 3.953-4.801 1.763-1.174 3.836-1.799 5.954-1.795 1.406 0 2.797 0.277 4.095 0.815 1.298 0.539 2.477 1.328 3.47 2.322 0.993 0.995 1.78 2.176 2.316 3.475s0.81 2.691 0.808 4.096z" fill="#616066"/>
<path d="m555.01 398.21-2.154-0.988 55.951-123.04 33.71-25.218 1.502 1.837-33.276 24.882-55.733 122.53z" fill="#B7B7B7"/>
<path d="m562.58 396.9c0 1.606-0.476 3.176-1.368 4.511-0.893 1.335-2.161 2.376-3.644 2.991-1.484 0.614-3.117 0.775-4.692 0.462-1.575-0.314-3.022-1.087-4.158-2.223-1.135-1.135-1.909-2.582-2.222-4.157s-0.152-3.208 0.462-4.692c0.615-1.483 1.656-2.752 2.991-3.644s2.905-1.368 4.511-1.368c2.154 0 4.219 0.855 5.742 2.378s2.378 3.588 2.378 5.742z" fill="#616066"/>
<path d="m558.23 396.9c3e-3 0.747-0.215 1.478-0.627 2.101-0.412 0.624-1 1.11-1.689 1.399s-1.449 0.366-2.182 0.223c-0.733-0.144-1.408-0.501-1.937-1.028-0.53-0.527-0.891-1.2-1.039-1.932-0.147-0.733-0.073-1.492 0.212-2.183s0.769-1.281 1.389-1.697c0.621-0.415 1.352-0.637 2.099-0.637 0.997 0 1.954 0.395 2.661 1.098 0.707 0.704 1.107 1.658 1.113 2.656z" fill="#616066"/>
<path d="m61.421 419.09-0.5228 3.692-0.5547 3.978-5.1023 36.207h-8.3508l5.1024-36.207 0.5546-3.978 0.5229-3.692h8.3507z" fill="#B7B7B7"/>
<path d="m60.901 422.78-0.5546 3.977h-8.3507l0.5546-3.977h8.3507z" fill="#616066" opacity=".1"/>
<path d="m102.66 419.09 0.507 3.692 0.571 3.977 5.102 36.208h8.351l-5.103-36.208-0.57-3.977-0.523-3.692h-8.335z" fill="#B7B7B7"/>
<path d="m103.15 422.78h8.351l0.571 3.977h-8.351l-0.571-3.977z" fill="#616066" opacity=".1"/>
<path d="m61.124 411.49h-6.6236l0.708-5.296c0.0664-0.497 0.4902-0.868 0.9912-0.868h3.2252c0.5011 0 0.9248 0.371 0.9912 0.868l0.708 5.296z" fill="#B7B7B7"/>
<path d="m109.42 411.49h-6.608l0.708-5.296c0.067-0.497 0.491-0.868 0.992-0.868h3.223c0.502 0 0.926 0.372 0.991 0.87l0.694 5.294z" fill="#B7B7B7"/>
<path d="m123.64 408.35h-83.206v15.909h83.206v-15.909z" fill="#E9E9E9"/>
<path d="m57.547 408.35-6.0372 15.909h-10.759l6.0531-15.909h10.744z" fill="#FE6100"/>
<path d="m79.566 408.35-6.0373 15.909h-10.759l6.0373-15.909h10.759z" fill="#FE6100"/>
<path d="m101.58 408.35-6.0368 15.909h-10.744l6.0373-15.909h10.743z" fill="#FE6100"/>
<path d="m123.6 408.35-6.037 15.909h-10.744l6.038-15.909h10.743z" fill="#FE6100"/>
<path d="m409.87 205.12h-1.273v67.848h1.273v-67.848z" fill="#B7B7B7"/>
<path d="m388.3 206.16h-1.274v67.849h1.274v-67.849z" fill="#B7B7B7"/>
<path d="m366.72 204.92h-1.274v67.848h1.274v-67.848z" fill="#B7B7B7"/>
<path d="m345.14 206.16h-1.274v67.848h1.274v-67.848z" fill="#B7B7B7"/>
<path d="m425.86 194.89h-1.274v67.849h1.274v-67.849z" fill="#B7B7B7"/>
<path d="m441.32 194.89h-1.274v67.848h1.274v-67.848z" fill="#B7B7B7"/>
<path d="m462.2 185.34h-1.273v67.848h1.273v-67.848z" fill="#B7B7B7"/>
<path d="m497.4 185.34h-1.274v67.848h1.274v-67.848z" fill="#B7B7B7"/>
<path d="m479.8 185.34h-1.274v67.848h1.274v-67.848z" fill="#B7B7B7"/>
<path d="m425.27 240.76h-80.177v1.274h80.177v-1.274z" fill="#B7B7B7"/>
<path d="m461.73 224.21h-116.46v1.274h116.46v-1.274z" fill="#B7B7B7"/>
<path d="m497.83 258.86h-151.96c-1.104 0-2 0.895-2 2v202.1h153.96v-204.1z" fill="#FE6100"/>
<path d="m453.63 327.82h-9.908c-1.105 0-2 0.895-2 2v23.239c0 1.105 0.895 2 2 2h9.908c1.105 0 2-0.895 2-2v-23.239c0-1.105-0.895-2-2-2z" fill="#fff"/>
<path d="m453.62 288.34h-9.908c-1.105 0-2 0.895-2 2v23.239c0 1.105 0.895 2 2 2h9.908c1.105 0 2-0.895 2-2v-23.239c0-1.105-0.895-2-2-2z" fill="#fff"/>
<path d="m398 327.82h-9.908c-1.105 0-2 0.895-2 2v23.239c0 1.105 0.895 2 2 2h9.908c1.105 0 2-0.895 2-2v-23.239c0-1.105-0.895-2-2-2z" fill="#fff"/>
<path d="m398 288.34h-9.908c-1.105 0-2 0.895-2 2v23.239c0 1.105 0.895 2 2 2h9.908c1.105 0 2-0.895 2-2v-23.239c0-1.105-0.895-2-2-2z" fill="#fff"/>
<path d="m370.19 327.82h-9.909c-1.104 0-2 0.895-2 2v23.239c0 1.105 0.896 2 2 2h9.909c1.104 0 2-0.895 2-2v-23.239c0-1.105-0.896-2-2-2z" fill="#fff"/>
<path d="m370.19 288.34h-9.909c-1.104 0-2 0.895-2 2v23.239c0 1.105 0.896 2 2 2h9.909c1.104 0 2-0.895 2-2v-23.239c0-1.105-0.896-2-2-2z" fill="#fff"/>
<path d="m481.44 327.82h-9.909c-1.104 0-2 0.895-2 2v23.239c0 1.105 0.896 2 2 2h9.909c1.104 0 2-0.895 2-2v-23.239c0-1.105-0.896-2-2-2z" fill="#fff"/>
<path d="m481.43 288.34h-9.908c-1.105 0-2 0.895-2 2v23.239c0 1.105 0.895 2 2 2h9.908c1.105 0 2-0.895 2-2v-23.239c0-1.105-0.895-2-2-2z" fill="#fff"/>
<path d="m425.82 327.82h-9.909c-1.104 0-2 0.895-2 2v23.239c0 1.105 0.896 2 2 2h9.909c1.104 0 2-0.895 2-2v-23.239c0-1.105-0.896-2-2-2z" fill="#fff"/>
<path d="m425.81 288.34h-9.909c-1.104 0-2 0.895-2 2v23.239c0 1.105 0.896 2 2 2h9.909c1.104 0 2-0.895 2-2v-23.239c0-1.105-0.896-2-2-2z" fill="#fff"/>
<path d="m453.63 367.29h-9.908c-1.105 0-2 0.896-2 2v23.239c0 1.105 0.895 2 2 2h9.908c1.105 0 2-0.895 2-2v-23.239c0-1.104-0.895-2-2-2z" fill="#fff"/>
<path d="m398 367.29h-9.908c-1.105 0-2 0.896-2 2v23.239c0 1.105 0.895 2 2 2h9.908c1.105 0 2-0.895 2-2v-23.239c0-1.104-0.895-2-2-2z" fill="#fff"/>
<path d="m370.19 367.29h-9.909c-1.104 0-2 0.896-2 2v23.239c0 1.105 0.896 2 2 2h9.909c1.104 0 2-0.895 2-2v-23.239c0-1.104-0.896-2-2-2z" fill="#fff"/>
<path d="m481.44 367.29h-9.909c-1.104 0-2 0.896-2 2v23.239c0 1.105 0.896 2 2 2h9.909c1.104 0 2-0.895 2-2v-23.239c0-1.104-0.896-2-2-2z" fill="#fff"/>
<path d="m425.82 367.29h-9.909c-1.104 0-2 0.896-2 2v23.239c0 1.105 0.896 2 2 2h9.909c1.104 0 2-0.895 2-2v-23.239c0-1.104-0.896-2-2-2z" fill="#fff"/>
<path d="m448.03 416.3h-54.331c-1.104 0-2 0.895-2 2v42.671c0 1.105 0.896 2 2 2h54.331c1.105 0 2-0.895 2-2v-42.671c0-1.105-0.895-2-2-2z" fill="#973F05"/>
<path d="m425.27 262.36v-16.392c0-1.105 0.895-2 2-2h13.411v-8.1c0-1.105 0.896-2 2-2h18.863v-7.018c0-1.104 0.895-2 2-2h32.287c1.104 0 2 0.896 2 2v34.071l-72.561 1.439z" fill="#FE6100"/>
<path d="m257.49 462.97h103.35s-46.662-75.453-103.35 0z" fill="#fff"/>
<path d="m257.49 462.97h103.35s-46.662-75.453-103.35 0z" fill="#616066" opacity=".3"/>
<path d="m318.93 455.47c0-0.207-0.061-0.409-0.176-0.58-0.115-0.172-0.278-0.306-0.469-0.385s-0.401-0.1-0.603-0.06c-0.203 0.041-0.389 0.14-0.535 0.286s-0.246 0.332-0.286 0.535-0.02 0.413 0.059 0.604 0.213 0.354 0.385 0.469c0.172 0.114 0.374 0.176 0.58 0.176 0.278 0 0.543-0.11 0.739-0.306s0.306-0.462 0.306-0.739z" fill="#616066" opacity=".1"/>
<path d="m295.94 447.08c0-0.206-0.061-0.408-0.176-0.58s-0.278-0.306-0.469-0.385-0.401-0.1-0.604-0.059c-0.202 0.04-0.388 0.139-0.535 0.286-0.146 0.146-0.245 0.332-0.285 0.534-0.041 0.203-0.02 0.413 0.059 0.604s0.213 0.354 0.385 0.469 0.374 0.176 0.58 0.176c0.137 0 0.273-0.027 0.4-0.08 0.127-0.052 0.242-0.129 0.339-0.226s0.174-0.212 0.226-0.339c0.053-0.127 0.08-0.262 0.08-0.4z" fill="#616066" opacity=".1"/>
<path d="m299.13 453.69c0-0.207-0.061-0.409-0.176-0.581-0.114-0.171-0.278-0.305-0.469-0.384-0.19-0.079-0.4-0.1-0.603-0.06s-0.389 0.14-0.535 0.286-0.246 0.332-0.286 0.535-0.02 0.413 0.059 0.604c0.08 0.191 0.213 0.354 0.385 0.468 0.172 0.115 0.374 0.177 0.581 0.177 0.277 0 0.542-0.111 0.738-0.306 0.196-0.196 0.306-0.462 0.306-0.739z" fill="#616066" opacity=".1"/>
<path d="m317.16 436.29c0-0.207 0.061-0.409 0.176-0.581 0.114-0.171 0.278-0.305 0.468-0.384 0.191-0.079 0.401-0.1 0.604-0.06s0.389 0.14 0.535 0.286 0.246 0.332 0.286 0.535 0.02 0.413-0.06 0.604c-0.079 0.19-0.212 0.354-0.384 0.468-0.172 0.115-0.374 0.177-0.581 0.177-0.137 0-0.273-0.028-0.4-0.08-0.126-0.053-0.241-0.129-0.338-0.226-0.097-0.098-0.174-0.213-0.227-0.339-0.052-0.127-0.079-0.263-0.079-0.4z" fill="#616066" opacity=".1"/>
<path d="m313.98 442.9c0-0.206 0.061-0.408 0.176-0.58s0.278-0.306 0.469-0.385 0.401-0.1 0.604-0.059c0.202 0.04 0.388 0.139 0.534 0.286 0.147 0.146 0.246 0.332 0.286 0.534 0.041 0.203 0.02 0.413-0.059 0.604s-0.213 0.354-0.385 0.469-0.374 0.176-0.58 0.176c-0.277 0-0.543-0.11-0.739-0.306s-0.306-0.462-0.306-0.739z" fill="#616066" opacity=".1"/>
<path d="m278.01 451.95c2e-3 -0.207-0.058-0.41-0.172-0.583-0.115-0.173-0.278-0.308-0.469-0.388-0.191-0.081-0.402-0.102-0.605-0.062-0.204 0.04-0.39 0.14-0.537 0.287-0.147 0.146-0.246 0.333-0.286 0.536-0.04 0.204-0.019 0.414 0.061 0.606 0.08 0.191 0.215 0.354 0.388 0.468s0.376 0.175 0.584 0.173c0.274-2e-3 0.536-0.112 0.73-0.306s0.304-0.456 0.306-0.731z" fill="#616066" opacity=".1"/>
<path d="m324.31 458.18c1e-3 -0.149-0.041-0.295-0.123-0.419-0.081-0.124-0.198-0.222-0.334-0.28-0.137-0.058-0.288-0.074-0.434-0.046s-0.28 0.099-0.386 0.204c-0.106 0.104-0.178 0.238-0.207 0.383-0.03 0.146-0.016 0.297 0.041 0.435 0.056 0.137 0.152 0.255 0.276 0.337 0.123 0.083 0.268 0.127 0.417 0.127 0.098 1e-3 0.195-0.017 0.286-0.054s0.174-0.091 0.244-0.16c0.069-0.069 0.125-0.151 0.163-0.242 0.037-0.09 0.057-0.187 0.057-0.285z" fill="#616066" opacity=".1"/>
<path d="m338.63 459.6c0.013-0.145-4e-3 -0.29-0.051-0.427s-0.121-0.263-0.219-0.37-0.217-0.192-0.35-0.251c-0.132-0.058-0.275-0.088-0.42-0.088s-0.289 0.03-0.421 0.088c-0.133 0.059-0.252 0.144-0.35 0.251-0.097 0.107-0.172 0.233-0.219 0.37-0.046 0.137-0.064 0.282-0.051 0.427 0.023 0.26 0.142 0.502 0.335 0.679 0.193 0.176 0.444 0.274 0.706 0.274 0.261 0 0.513-0.098 0.705-0.274 0.193-0.177 0.313-0.419 0.335-0.679z" fill="#616066" opacity=".1"/>
<path d="m300.17 460.64c-0.022-0.26-0.142-0.503-0.335-0.679-0.192-0.177-0.444-0.274-0.705-0.274-0.262 0-0.513 0.097-0.706 0.274-0.193 0.176-0.312 0.419-0.335 0.679-0.013 0.144 5e-3 0.29 0.051 0.427 0.047 0.137 0.121 0.263 0.219 0.37s0.217 0.192 0.35 0.25c0.132 0.059 0.276 0.089 0.421 0.089s0.288-0.03 0.42-0.089c0.133-0.058 0.252-0.143 0.35-0.25s0.172-0.233 0.219-0.37 0.064-0.283 0.051-0.427z" fill="#616066" opacity=".1"/>
<path d="m306.3 441.86c-2e-3 -0.148 0.041-0.294 0.122-0.418 0.081-0.125 0.198-0.222 0.335-0.28s0.288-0.074 0.433-0.046c0.146 0.028 0.281 0.099 0.386 0.203 0.106 0.105 0.178 0.238 0.208 0.384 0.029 0.146 0.015 0.297-0.041 0.434-0.057 0.138-0.153 0.255-0.277 0.338-0.123 0.083-0.268 0.127-0.417 0.127-0.098 1e-3 -0.195-0.018-0.286-0.054-0.091-0.037-0.174-0.092-0.243-0.161-0.07-0.069-0.125-0.151-0.163-0.241-0.038-0.091-0.057-0.188-0.057-0.286z" fill="#616066" opacity=".1"/>
<path d="m304.03 451.21c1e-3 -0.149-0.042-0.295-0.123-0.419-0.082-0.125-0.199-0.222-0.336-0.28-0.138-0.057-0.289-0.073-0.435-0.044-0.146 0.028-0.281 0.1-0.386 0.205-0.105 0.106-0.177 0.24-0.206 0.386-0.028 0.146-0.013 0.298 0.045 0.435s0.155 0.254 0.279 0.336c0.125 0.082 0.271 0.125 0.42 0.123 0.196-2e-3 0.383-0.081 0.522-0.22 0.139-0.138 0.218-0.326 0.22-0.522z" fill="#616066" opacity=".1"/>
<path d="m329.6 449.28c0-0.147-0.044-0.29-0.125-0.412-0.082-0.122-0.198-0.217-0.333-0.273-0.136-0.057-0.285-0.071-0.429-0.043-0.144 0.029-0.276 0.1-0.379 0.203-0.104 0.104-0.175 0.236-0.203 0.38-0.029 0.144-0.014 0.293 0.042 0.429 0.056 0.135 0.151 0.251 0.273 0.333 0.122 0.081 0.265 0.125 0.412 0.125 0.098 1e-3 0.195-0.018 0.285-0.055 0.091-0.037 0.173-0.091 0.242-0.16s0.123-0.152 0.16-0.242c0.037-0.091 0.056-0.187 0.055-0.285z" fill="#616066" opacity=".1"/>
<path d="m284.88 447.79c0-0.146-0.044-0.29-0.125-0.412-0.082-0.122-0.197-0.217-0.333-0.273-0.135-0.056-0.285-0.071-0.428-0.042-0.144 0.029-0.277 0.099-0.38 0.203-0.104 0.104-0.175 0.236-0.203 0.38-0.029 0.144-0.014 0.293 0.042 0.428 0.056 0.136 0.151 0.252 0.273 0.333 0.122 0.082 0.266 0.125 0.412 0.125 0.098 1e-3 0.195-0.017 0.285-0.054 0.091-0.037 0.173-0.092 0.242-0.161s0.124-0.151 0.161-0.241c0.037-0.091 0.055-0.188 0.054-0.286z" fill="#616066" opacity=".1"/>
<path d="m348.81 456.52c0-0.147-0.044-0.291-0.125-0.412-0.082-0.122-0.198-0.218-0.333-0.274-0.136-0.056-0.285-0.07-0.429-0.042-0.144 0.029-0.276 0.099-0.38 0.203-0.103 0.104-0.174 0.236-0.203 0.38-0.028 0.144-0.013 0.293 0.043 0.428 0.056 0.136 0.151 0.252 0.273 0.333 0.122 0.082 0.265 0.125 0.412 0.125 0.097 0 0.194-0.019 0.284-0.056s0.171-0.092 0.24-0.161 0.124-0.151 0.161-0.241 0.057-0.186 0.057-0.283z" fill="#616066" opacity=".1"/>
<path d="m224 462.97h71.392s-32.235-36.174-71.392 0z" fill="#fff"/>
<path d="m224 462.97h71.392s-32.235-36.174-71.392 0z" fill="#616066" opacity=".2"/>
<path d="m265.07 456.73c-1e-3 0.207 0.059 0.41 0.173 0.583s0.277 0.308 0.469 0.388c0.191 0.08 0.401 0.102 0.605 0.062 0.203-0.04 0.39-0.14 0.537-0.287 0.146-0.146 0.246-0.333 0.286-0.536 0.04-0.204 0.019-0.415-0.061-0.606s-0.215-0.354-0.389-0.468c-0.173-0.114-0.376-0.175-0.583-0.173-0.275 0-0.539 0.109-0.733 0.304-0.194 0.194-0.304 0.458-0.304 0.733z" fill="#616066" opacity=".1"/>
<path d="m284.88 458.51c-2e-3 0.208 0.058 0.411 0.173 0.584 0.114 0.173 0.277 0.308 0.468 0.388s0.402 0.101 0.606 0.061c0.203-0.04 0.39-0.139 0.536-0.286 0.147-0.147 0.247-0.333 0.287-0.537 0.04-0.203 0.018-0.414-0.062-0.605s-0.215-0.354-0.388-0.469c-0.173-0.114-0.376-0.174-0.583-0.172-0.275 2e-3 -0.537 0.112-0.731 0.306s-0.304 0.456-0.306 0.73z" fill="#616066" opacity=".1"/>
<path d="m245.36 452.6c0 0.207 0.062 0.409 0.176 0.581 0.115 0.172 0.278 0.305 0.469 0.385 0.191 0.079 0.401 0.099 0.604 0.059 0.202-0.04 0.389-0.14 0.535-0.286s0.245-0.332 0.286-0.535c0.04-0.203 0.019-0.413-0.06-0.603-0.079-0.191-0.213-0.355-0.385-0.469-0.171-0.115-0.373-0.176-0.58-0.176-0.277 0-0.543 0.11-0.739 0.306s-0.306 0.461-0.306 0.738z" fill="#616066" opacity=".1"/>
<path d="m259.7 454.03c0 0.149 0.044 0.294 0.127 0.417 0.083 0.124 0.2 0.22 0.338 0.276 0.137 0.057 0.288 0.071 0.434 0.042 0.146-0.03 0.279-0.102 0.384-0.208 0.104-0.105 0.175-0.24 0.203-0.386s0.012-0.297-0.046-0.433c-0.058-0.137-0.155-0.254-0.279-0.335-0.125-0.082-0.27-0.124-0.419-0.123-0.098 0-0.195 0.02-0.286 0.058-0.09 0.037-0.172 0.093-0.241 0.162-0.069 0.07-0.124 0.153-0.161 0.244-0.036 0.091-0.055 0.188-0.054 0.286z" fill="#616066" opacity=".1"/>
<path d="m279.97 461c-2e-3 0.149 0.041 0.295 0.123 0.42 0.081 0.124 0.198 0.222 0.336 0.279 0.137 0.058 0.288 0.074 0.435 0.045 0.146-0.029 0.28-0.1 0.385-0.205 0.106-0.106 0.177-0.24 0.206-0.386s0.013-0.298-0.045-0.435c-0.057-0.137-0.155-0.254-0.279-0.336-0.125-0.082-0.271-0.125-0.42-0.123-0.196 0-0.385 0.078-0.524 0.217s-0.217 0.328-0.217 0.524z" fill="#616066" opacity=".1"/>
<path d="m239.7 458.51c-1e-3 0.149 0.042 0.295 0.123 0.42 0.082 0.124 0.199 0.221 0.336 0.279 0.138 0.058 0.289 0.073 0.435 0.045 0.146-0.029 0.281-0.1 0.386-0.206 0.105-0.105 0.177-0.239 0.206-0.386 0.028-0.146 0.013-0.297-0.045-0.434-0.058-0.138-0.155-0.255-0.28-0.336-0.124-0.082-0.27-0.125-0.419-0.123-0.196 2e-3 -0.384 0.08-0.522 0.219-0.139 0.139-0.218 0.326-0.22 0.522z" fill="#616066" opacity=".1"/>
<path d="m182.14 89.553 2.718 2.5631-26.26 27.847-2.718-2.563 26.26-27.847z" fill="#B7B7B7"/>
<path d="m157.24 117.99h26.899v3.736h-26.899v-3.736z" fill="#B7B7B7"/>
<path d="m157.24 88.964h26.899v3.7359h-26.899v-3.7359z" fill="#B7B7B7"/>
<path d="m158.58 89.591 26.256 27.852-2.719 2.563-26.255-27.853 2.718-2.5627z" fill="#B7B7B7"/>
<path d="m182.13 118.58 2.718 2.564-26.261 27.847-2.718-2.563 26.261-27.848z" fill="#B7B7B7"/>
<path d="m157.24 147.01h26.899v3.736h-26.899v-3.736z" fill="#B7B7B7"/>
<path d="m157.24 117.99h26.899v3.736h-26.899v-3.736z" fill="#B7B7B7"/>
<path d="m158.58 118.62 26.256 27.853-2.718 2.562-26.256-27.852 2.718-2.563z" fill="#B7B7B7"/>
<path d="m182.12 147.59 2.718 2.563-26.261 27.848-2.718-2.563 26.261-27.848z" fill="#B7B7B7"/>
<path d="m157.24 176.01h26.899v3.736h-26.899v-3.736z" fill="#B7B7B7"/>
<path d="m157.24 147.01h26.899v3.736h-26.899v-3.736z" fill="#B7B7B7"/>
<path d="m158.56 147.63 26.255 27.852-2.718 2.563-26.256-27.852 2.719-2.563z" fill="#B7B7B7"/>
<path d="m182.14 176.61 2.718 2.563-26.26 27.848-2.718-2.564 26.26-27.847z" fill="#B7B7B7"/>
<path d="m157.24 205.04h26.899v3.736h-26.899v-3.736z" fill="#B7B7B7"/>
<path d="m157.24 176.01h26.899v3.736h-26.899v-3.736z" fill="#B7B7B7"/>
<path d="m158.58 176.64 26.256 27.852-2.719 2.563-26.255-27.852 2.718-2.563z" fill="#B7B7B7"/>
<path d="m182.14 205.64 2.718 2.563-26.26 27.848-2.718-2.563 26.26-27.848z" fill="#B7B7B7"/>
<path d="m157.24 234.06h26.899v3.736h-26.899v-3.736z" fill="#B7B7B7"/>
<path d="m157.24 205.04h26.899v3.736h-26.899v-3.736z" fill="#B7B7B7"/>
<path d="m158.58 205.67 26.256 27.853-2.718 2.562-26.256-27.852 2.718-2.563z" fill="#B7B7B7"/>
<path d="m182.14 234.61 2.718 2.563-26.26 27.847-2.718-2.563 26.26-27.847z" fill="#B7B7B7"/>
<path d="m157.24 263.06h26.899v3.736h-26.899v-3.736z" fill="#B7B7B7"/>
<path d="m157.24 234.06h26.899v3.736h-26.899v-3.736z" fill="#B7B7B7"/>
<path d="m158.58 234.68 26.256 27.852-2.719 2.563-26.255-27.852 2.718-2.563z" fill="#B7B7B7"/>
<path d="m182.15 263.66 2.718 2.563-26.261 27.848-2.718-2.563 26.261-27.848z" fill="#B7B7B7"/>
<path d="m157.24 292.08h26.899v3.736h-26.899v-3.736z" fill="#B7B7B7"/>
<path d="m157.24 263.06h26.899v3.736h-26.899v-3.736z" fill="#B7B7B7"/>
<path d="m158.58 263.7 26.256 27.853-2.718 2.562-26.256-27.852 2.718-2.563z" fill="#B7B7B7"/>
<path d="m182.14 292.67 2.718 2.563-26.26 27.848-2.718-2.564 26.26-27.847z" fill="#B7B7B7"/>
<path d="m157.24 321.1h26.899v3.736h-26.899v-3.736z" fill="#B7B7B7"/>
<path d="m157.24 292.08h26.899v3.736h-26.899v-3.736z" fill="#B7B7B7"/>
<path d="m158.58 292.72 26.256 27.852-2.718 2.563-26.256-27.852 2.718-2.563z" fill="#B7B7B7"/>
<path d="m182.11 321.75 2.718 2.563-26.261 27.848-2.718-2.563 26.261-27.848z" fill="#B7B7B7"/>
<path d="m157.24 350.13h26.899v3.736h-26.899v-3.736z" fill="#B7B7B7"/>
<path d="m157.24 321.1h26.899v3.736h-26.899v-3.736z" fill="#B7B7B7"/>
<path d="m158.58 321.75 26.256 27.852-2.719 2.563-26.255-27.852 2.718-2.563z" fill="#B7B7B7"/>
<path d="m182.14 350.69 2.719 2.562-26.251 27.857-2.719-2.562 26.251-27.857z" fill="#B7B7B7"/>
<path d="m157.24 379.13h26.899v3.736h-26.899v-3.736z" fill="#B7B7B7"/>
<path d="m157.24 350.13h26.899v3.736h-26.899v-3.736z" fill="#B7B7B7"/>
<path d="m158.59 350.74 26.256 27.852-2.719 2.562-26.256-27.852 2.719-2.562z" fill="#B7B7B7"/>
<path d="m182.14 379.71 2.719 2.563-26.251 27.856-2.719-2.562 26.251-27.857z" fill="#B7B7B7"/>
<path d="m157.24 408.15h26.899v3.736h-26.899v-3.736z" fill="#B7B7B7"/>
<path d="m157.24 379.13h26.899v3.736h-26.899v-3.736z" fill="#B7B7B7"/>
<path d="m158.59 379.77 26.256 27.852-2.719 2.563-26.256-27.852 2.719-2.563z" fill="#B7B7B7"/>
<path d="m153.72 424.66v-16.896h32.808v16.896h-32.808z" fill="#B7B7B7"/>
<path d="m153.72 408.83v-318.34h6.724v318.34h-6.724z" fill="#B7B7B7"/>
<path d="m179.81 408.83v-318.34h6.725v318.34h-6.725z" fill="#B7B7B7"/>
<path d="m445.05 88.217-29.056-28.631-245.25-45.715-74.533 45.919-1.9529-3.1755 75.756-46.666 247.78 46.173 29.871 29.429-2.615 2.6661z" fill="#B7B7B7"/>
<path d="m200.3 63.594-29.871-41.52-28.58 41.469-6.148-4.2455 34.609-50.164 36.052 50.113-6.062 4.3473z" fill="#616066"/>
<path d="m388.63 62.84 27.852 26.256-2.562 2.7185-27.852-26.256 2.562-2.7185z" fill="#B7B7B7"/>
<path d="m414.5 63.594h3.735v26.899h-3.735v-26.899z" fill="#B7B7B7"/>
<path d="m385.48 63.594h3.736v26.899h-3.736v-26.899z" fill="#B7B7B7"/>
<path d="m413.93 62.842 2.562 2.7185-27.852 26.256-2.563-2.7185 27.853-26.256z" fill="#B7B7B7"/>
<path d="m359.61 62.834 27.852 26.256-2.563 2.7185-27.852-26.256 2.563-2.7185z" fill="#B7B7B7"/>
<path d="m385.48 63.594h3.736v26.899h-3.736v-26.899z" fill="#B7B7B7"/>
<path d="m356.45 63.594h3.736v26.899h-3.736v-26.899z" fill="#B7B7B7"/>
<path d="m384.87 62.91 2.564 2.718-27.848 26.261-2.563-2.7181 27.847-26.261z" fill="#B7B7B7"/>
<path d="m330.61 62.842 27.852 26.256-2.563 2.7185-27.852-26.256 2.563-2.7185z" fill="#B7B7B7"/>
<path d="m356.45 63.594h3.736v26.899h-3.736v-26.899z" fill="#B7B7B7"/>
<path d="m327.45 63.594h3.737v26.899h-3.737v-26.899z" fill="#B7B7B7"/>
<path d="m355.85 62.933 2.563 2.7181-27.848 26.261-2.563-2.7181 27.848-26.261z" fill="#B7B7B7"/>
<path d="m301.59 62.837 27.852 26.256-2.562 2.7185-27.853-26.256 2.563-2.7185z" fill="#B7B7B7"/>
<path d="m327.45 63.594h3.737v26.899h-3.737v-26.899z" fill="#B7B7B7"/>
<path d="m298.42 63.594h3.736v26.899h-3.736v-26.899z" fill="#B7B7B7"/>
<path d="m326.84 62.928 2.563 2.718-27.847 26.261-2.564-2.718 27.848-26.261z" fill="#B7B7B7"/>
<path d="m272.57 62.832 27.852 26.256-2.563 2.7185-27.852-26.256 2.563-2.7185z" fill="#B7B7B7"/>
<path d="m298.42 63.594h3.736v26.899h-3.736v-26.899z" fill="#B7B7B7"/>
<path d="m269.4 63.594h3.736v26.899h-3.736v-26.899z" fill="#B7B7B7"/>
<path d="m297.85 62.887 2.563 2.7181-27.848 26.261-2.563-2.7181 27.848-26.261z" fill="#B7B7B7"/>
<path d="m243.56 62.839 27.852 26.256-2.563 2.7185-27.852-26.256 2.563-2.7185z" fill="#B7B7B7"/>
<path d="m269.4 63.594h3.736v26.899h-3.736v-26.899z" fill="#B7B7B7"/>
<path d="m240.38 63.594h3.736v26.899h-3.736v-26.899z" fill="#B7B7B7"/>
<path d="m268.79 62.898 2.563 2.7181-27.847 26.261-2.563-2.7181 27.847-26.261z" fill="#B7B7B7"/>
<path d="m214.55 62.834 27.852 26.256-2.562 2.7185-27.853-26.256 2.563-2.7185z" fill="#B7B7B7"/>
<path d="m240.38 63.594h3.736v26.899h-3.736v-26.899z" fill="#B7B7B7"/>
<path d="m211.38 63.594h3.736v26.899h-3.736v-26.899z" fill="#B7B7B7"/>
<path d="m239.79 62.904 2.564 2.7181-27.848 26.261-2.563-2.718 27.847-26.261z" fill="#B7B7B7"/>
<path d="m185.53 62.829 27.852 26.256-2.563 2.7185-27.852-26.256 2.563-2.7185z" fill="#B7B7B7"/>
<path d="m211.38 63.594h3.736v26.899h-3.736v-26.899z" fill="#B7B7B7"/>
<path d="m182.36 63.594h3.736v26.899h-3.736v-26.899z" fill="#B7B7B7"/>
<path d="m210.76 62.916 2.563 2.718-27.847 26.261-2.564-2.7181 27.848-26.261z" fill="#B7B7B7"/>
<path d="m156.52 62.836 27.852 26.256-2.563 2.7185-27.852-26.256 2.563-2.7185z" fill="#B7B7B7"/>
<path d="m182.36 63.594h3.736v26.899h-3.736v-26.899z" fill="#B7B7B7"/>
<path d="m153.34 63.594h3.736v26.899h-3.736v-26.899z" fill="#B7B7B7"/>
<path d="m181.73 62.926 2.563 2.718-27.848 26.261-2.563-2.718 27.848-26.261z" fill="#B7B7B7"/>
<path d="m127.5 62.831 27.852 26.256-2.562 2.7185-27.852-26.256 2.562-2.7185z" fill="#B7B7B7"/>
<path d="m153.34 63.594h3.736v26.899h-3.736v-26.899z" fill="#B7B7B7"/>
<path d="m124.33 63.594h3.735v26.899h-3.735v-26.899z" fill="#B7B7B7"/>
<path d="m152.73 62.916 2.563 2.7181-27.848 26.261-2.563-2.7181 27.848-26.261z" fill="#B7B7B7"/>
<path d="m98.492 62.827 27.852 26.256-2.563 2.7185-27.852-26.256 2.5627-2.7185z" fill="#B7B7B7"/>
<path d="m124.33 63.594h3.735v26.899h-3.735v-26.899z" fill="#B7B7B7"/>
<path d="m95.307 63.594h3.736v26.899h-3.736v-26.899z" fill="#B7B7B7"/>
<path d="m123.72 62.91 2.563 2.718-27.847 26.261-2.5631-2.718 27.848-26.261z" fill="#B7B7B7"/>
<path d="m445.66 92.344h-351.44v-6.7248h353.44v4.7248c0 1.1045-0.896 2-2 2z" fill="#B7B7B7"/>
<path d="m428.1 66.277h-333.9v-6.7248h327.05l6.844 6.7248z" fill="#B7B7B7"/>
<path d="m65.223 94.865h14.88v-38.786h-14.88c-1.1046 0-2 0.8954-2 2v34.786c0 1.1046 0.8954 2 2 2z" fill="#616066"/>
<path d="m80.106 94.865h16.897v-38.786h-16.897v38.786z" fill="#616066"/>
<path d="m117.31 111.22h-28.401c-1.1046 0-2-0.895-2-2v-17.359h32.401v17.359c0 1.105-0.895 2-2 2z" fill="#616066"/>
<path d="m420.85 63.594h3.736v26.899h-3.736v-26.899z" fill="#B7B7B7"/>
<path d="m375.86 96.317h3.736v89.019h-3.736v-89.019z" fill="#616066"/>
<path d="m407.41 97.557h3.736v89.018h-3.736v-89.018z" fill="#616066"/>
<path d="m416.36 100.29h-45.179c-1.105 0-2-0.8954-2-2v-5.9601h49.179v5.9601c0 1.1046-0.896 2-2 2z" fill="#B7B7B7"/>
<path d="m395.63 194.61-0.407 8.27-1.189-1.426c1.329 0.374 2.594 0.947 3.753 1.698 1.195 0.728 2.206 1.721 2.955 2.904 0.715 1.198 1.076 2.574 1.04 3.969s-0.468 2.751-1.244 3.91c-0.729 1.085-1.723 1.967-2.888 2.561s-2.462 0.882-3.769 0.835c-1.241-0.091-2.444-0.471-3.514-1.107-1.07-0.637-1.977-1.513-2.65-2.561 0.733 0.932 1.67 1.683 2.738 2.195 1.069 0.512 2.241 0.772 3.426 0.76 1.116-0.063 2.199-0.407 3.146-1.001s1.728-1.418 2.271-2.395c0.5-0.921 0.73-1.963 0.664-3.009-0.066-1.045-0.426-2.05-1.037-2.901-1.393-1.591-3.32-2.618-5.417-2.887l-1.121-0.186v-1.24l-0.408-8.27 3.651-0.119z" fill="#616066"/>
<path d="m416.35 177.64c1.104 0 2 0.895 2 2v9.92c0 0.926-0.637 1.731-1.538 1.945l-22.59 5.367c-0.304 0.072-0.62 0.072-0.924 0l-22.573-5.366c-0.901-0.215-1.538-1.02-1.538-1.946v-9.92c0-1.105 0.896-2 2-2h45.163z" fill="#FE6100"/>
<path d="m380.47 185.56c0 0.564-0.168 1.116-0.481 1.585-0.314 0.469-0.759 0.835-1.28 1.051-0.522 0.216-1.095 0.272-1.649 0.162-0.553-0.11-1.062-0.382-1.461-0.781s-0.67-0.907-0.78-1.46c-0.11-0.554-0.054-1.127 0.162-1.649 0.216-0.521 0.582-0.967 1.051-1.28 0.469-0.314 1.02-0.481 1.585-0.481 0.756 0 1.482 0.301 2.017 0.836s0.836 1.26 0.836 2.017z" fill="#616066"/>
<path d="m412.78 185.56c0 0.564-0.167 1.116-0.48 1.585-0.314 0.469-0.759 0.835-1.281 1.051-0.521 0.216-1.095 0.272-1.648 0.162-0.554-0.11-1.062-0.382-1.461-0.781s-0.671-0.907-0.781-1.46c-0.11-0.554-0.053-1.127 0.163-1.649 0.216-0.521 0.581-0.967 1.05-1.28 0.47-0.314 1.021-0.481 1.585-0.481 0.757 0 1.483 0.301 2.018 0.836s0.835 1.26 0.835 2.017z" fill="#616066"/>
<path d="m176.67 11.918c0 1.2461-0.37 2.4641-1.062 3.5002s-1.676 1.8436-2.827 2.3204c-1.151 0.4769-2.418 0.6017-3.64 0.3586s-2.345-0.8432-3.226-1.7243-1.481-2.0037-1.724-3.2258-0.119-2.4889 0.358-3.6401 1.284-2.1352 2.321-2.8274c1.036-0.69227 2.254-1.0618 3.5-1.0618 1.671 0 3.273 0.66378 4.455 1.8453 1.181 1.1815 1.845 2.784 1.845 4.4549z" fill="#B7B7B7"/>
<path d="m422.66 59.552c0 1.2461-0.369 2.4641-1.062 3.5002-0.692 1.0361-1.676 1.8436-2.827 2.3204-1.151 0.4769-2.418 0.6017-3.64 0.3586s-2.345-0.8432-3.226-1.7243-1.481-2.0037-1.724-3.2258-0.119-2.4889 0.358-3.6401 1.285-2.1352 2.321-2.8275c1.036-0.6922 2.254-1.0617 3.5-1.0617 1.671 0 3.273 0.6637 4.455 1.8453 1.181 1.1815 1.845 2.784 1.845 4.4549z" fill="#616066"/>
<path d="m173.33 11.918c3e-3 0.5851-0.167 1.1581-0.49 1.6462-0.322 0.4882-0.783 0.8695-1.322 1.0958-0.54 0.2262-1.135 0.2872-1.709 0.1751s-1.102-0.3922-1.517-0.8047c-0.415-0.4126-0.698-0.939-0.814-1.5127-0.115-0.5736-0.057-1.1686 0.166-1.7095s0.602-1.0034 1.088-1.3288 1.058-0.49917 1.643-0.49918c0.781-1e-5 1.53 0.30897 2.084 0.85944 0.553 0.55049 0.866 1.2977 0.871 2.0784z" fill="#616066"/>
<path d="m419.32 59.552c4e-3 0.5851-0.167 1.1581-0.489 1.6462-0.323 0.4882-0.783 0.8695-1.323 1.0958-0.54 0.2262-1.134 0.2872-1.709 0.1751-0.574-0.1121-1.102-0.3922-1.517-0.8047-0.415-0.4126-0.698-0.939-0.813-1.5127-0.116-0.5736-0.058-1.1686 0.165-1.7095s0.602-1.0034 1.088-1.3288c0.486-0.3255 1.058-0.4992 1.643-0.4992 0.781 0 1.53 0.3089 2.084 0.8594 0.553 0.5505 0.867 1.2977 0.871 2.0784z" fill="#B7B7B7"/>
<path d="m197.3 437.48h-54.308v-10.838c0-1.104 0.896-2 2-2h50.308c1.104 0 2 0.896 2 2v10.838z" fill="#616066"/>
<path d="m209.07 462.65h-77.844v-23.167c0-1.104 0.895-2 2-2h73.844c1.104 0 2 0.896 2 2v23.167z" fill="#616066"/>
<path d="m201.41 115.54c0.16 1.198-0.773 2.264-1.982 2.264h-53.828c-1.104 0-2-0.896-2-2v-60.327c0-1.1046 0.896-2 2-2h35.938c3.216-0.0065 6.324 1.1588 8.743 3.2778 2.419 2.1191 3.983 5.0469 4.4 8.2358l6.729 50.55z" fill="#FE6100"/>
<path d="m185.9 98.237h-27.255c-0.293 0.0045-0.586-0.0356-0.867-0.1189-0.634-0.1905-1.191-0.5811-1.586-1.1136-0.394-0.5325-0.606-1.1784-0.604-1.8412v-32.354c0-1.1046 0.895-2 2-2h17.376c0.65-0.0068 1.299 0.0558 1.936 0.1868 1.463 0.2731 2.852 0.8518 4.076 1.6982 1.267 0.8645 2.339 1.9852 3.146 3.2898 0.808 1.3046 1.332 2.764 1.541 4.284l3.226 24.488c0.055 0.429 0.019 0.8646-0.105 1.2789-0.124 0.4142-0.334 0.7978-0.616 1.1259-0.281 0.3281-0.629 0.5935-1.02 0.7789-0.39 0.1854-0.815 0.2868-1.248 0.2976z" fill="#fff"/>
<g fill="#E9E9E9" opacity=".5">
<path d="m163.87 60.809 23.673 23.384-1.868-14.01c-0.231-1.5797-0.811-3.0881-1.698-4.4152l-3.397-3.2945c-1.156-0.7238-2.442-1.2142-3.787-1.4434-0.636-0.131-1.285-0.1936-1.935-0.1868l-10.988-0.034z" opacity=".8"/>
<path d="m155.6 69.062v9.1872l20.225 19.988h9.289l-29.514-29.175z" opacity=".8"/>
<path d="m155.59 81.849v1.3925l15.165 14.995h1.427l-16.592-16.387z" opacity=".8"/>
</g>
</svg>
