<?xml version="1.0" encoding="UTF-8"?>
<svg version="1.1" viewBox="0 0 3162.2 982.86" xmlns="http://www.w3.org/2000/svg">
<g transform="scale(8.1081) translate(10 10)">
<g transform="matrix(1.1258 0 0 1.1258 .0030047 0)" fill="#fe6100" featureKey="41S5F6-0">
<title xmlns="http://www.w3.org/2000/svg">Icon_Knock</title>
<path transform="translate(-5.59 -5)" d="M70.88,37.94c6.57,4.51,23.53,4.12,23.53,4.12s-16,6.86-16.47,14.12,5.29,22.94,5.29,22.94-5.58-7.45-10-5.88-5.78,19.41-5.88,18.82A22.72,22.72,0,0,0,62.06,85C59,82.26,55,79.12,55,79.12a6.53,6.53,0,0,1,4.7-.59,8.5,8.5,0,0,1,3.53,2.36,16.13,16.13,0,0,1,3.53-8.24c3-3.33,8.83-3.53,8.83-3.53S71,65.4,72.65,57.94s4.7-11.17,4.7-11.17-8.72,1.57-11.76-5.3,0-14.12,0-14.12S59,32.06,53.82,29.12s-8.23-10-8.23-10-2.65,3.33-4.71,4.12a26.77,26.77,0,0,1-4.71,1.17,62.89,62.89,0,0,0,4.71-8.23C42.15,13,46.17,5,46.17,5s3.24,17.45,10.59,18.24,22.36-5.89,22.36-5.89S64.31,33.43,70.88,37.94ZM44.15,28c4.74.7,7.8,3.74,10,6.67a5.78,5.78,0,0,1,1.12,5.55s-7.66-4.13-10.59-4.49C41.36,35.32,35.78,38,35.78,38a57.76,57.76,0,0,1,9.81.5c3.62.7,11.07,3.51,11.91,5s1.39,4.05,0,5.58c-.59.65-6.52-3.59-9.56-4.16-4.1-.76-9.93,3.63-9.93,3.63a32.74,32.74,0,0,1,9.93-.69c4.34.54,11,4.13,11.79,5.13,1.67,2.09.19,4.8-1.2,6-1.71-.6-5.25-3.73-8.09-4.37-3.43-.78-8.89,2.51-9,2.61s7.64-.25,9.9.2,8.11,4.66,8.39,5.58c.56,1.82-.52,4.59-2.79,8.93-1.67,3.21-4.21,5.66-8.93,5a3.26,3.26,0,0,1-3-2.61c-.1-.61-.37-1.88,2.35-4.12,1.15-1,4.9-1.38,5.16-2.1.41-1.12-6.11-1-6.13-1.12-.18-.92-2.25,3.37-2.23,3.35s-3.63,9.63-6.69,13.95-7,8.24-10.6,10.05-7.25-1-13.38-4.47S5.11,74.76,5.67,69.87,13.6,50.54,15.83,43.7c2.16-6.63,2.79-8,6.13-9.49S39.41,27.31,44.15,28Z" fill-rule="evenodd" xmlns="http://www.w3.org/2000/svg"/>
</g>
<g transform="matrix(3.6898 0 0 3.6898 113.26 2.9927)" fill="#111" featureKey="RGwKHf-0">
<path d="m11.465 5.889h2.9199v14.111h-3.3887l-6.25-10.088v10.088h-2.9199v-14.111h3.3496l6.2891 10.029v-10.029zm12.822 14.306c-4.1504 0-7.2168-2.832-7.2168-7.2559 0-4.4336 3.0664-7.2461 7.2168-7.2461 4.1406 0 7.207 2.8125 7.207 7.2461 0 4.4238-3.0664 7.2559-7.207 7.2559zm0-2.6855c2.4316 0 4.2969-1.709 4.2969-4.5703 0-2.8516-1.8652-4.5508-4.2969-4.5508s-4.2969 1.6992-4.2969 4.5508c0 2.8613 1.8652 4.5703 4.2969 4.5703zm18.252 2.4902-4.3848-5.9961h-1.0352v5.9961h-2.9297v-14.111h2.9297v5.5469h0.99609l4.4238-5.5469h3.5742l-5.4688 6.748 5.6348 7.3633h-3.7402zm7.2264 0.19531c-0.86914 0-1.6016-0.72266-1.6016-1.6016s0.73242-1.6211 1.6016-1.6211c0.88867 0 1.6211 0.74219 1.6211 1.6211s-0.73242 1.6016-1.6211 1.6016zm5.0586-0.19531v-14.111h2.9297v14.111h-2.9297zm14.756-11.533h-5.2344v3.2031h4.6387v2.5488h-4.6387v3.1934h5.2344v2.5879h-8.1836v-14.111h8.1836v2.5781z"/>
</g>
</g>
</svg>
