<svg width="64" height="64" viewBox="0 0 64 64" fill="none" xmlns="http://www.w3.org/2000/svg">
<rect width="64" height="64" fill="#F6F6F6"/>
<circle cx="32" cy="32" r="32" fill="#F6F6F6"/>
<g filter="url(#filter0_d_1155_42205)">
<path fill-rule="evenodd" clip-rule="evenodd" d="M13.0164 31.2295L32.0005 12L41.8415 21.9683V15.3086H46.7621V26.9737L50.9815 31.2295C51.3692 31.6205 51.3679 32.2514 50.9785 32.6407L49.9008 33.7184C49.505 34.1143 48.8612 34.108 48.4731 33.7045L46.9901 32.163V50C46.9901 51.1046 46.0947 52 44.9901 52L30.952 52H22.9329L19.205 52C18.1004 52 17.205 51.1046 17.205 50V31.9612L15.5279 33.7045C15.1397 34.108 14.496 34.1143 14.1001 33.7184L13.0209 32.6392C12.6322 32.2505 12.6302 31.6208 13.0164 31.2295Z" fill="#FF0000" fill-opacity="0.01" shape-rendering="crispEdges"/>
</g>
<path d="M46.9902 30.6937V49.9999C46.9902 51.1045 46.0948 51.9999 44.9902 51.9999H19.2051C18.1005 51.9999 17.2051 51.1045 17.2051 49.9999V30.6937L32.0976 15.3413L46.9902 30.6937Z" fill="white"/>
<path d="M22.9336 35.8164V52.0001H30.9527V35.8164C30.9527 35.2641 30.505 34.8164 29.9527 34.8164H23.9336C23.3813 34.8164 22.9336 35.2641 22.9336 35.8164Z" fill="#FE6100"/>
<path d="M32.0005 12L13.0164 31.2295C12.6302 31.6208 12.6322 32.2505 13.0209 32.6392L14.1001 33.7184C14.496 34.1143 15.1397 34.108 15.5279 33.7045L32.0005 16.5812L48.4731 33.7045C48.8612 34.108 49.505 34.1143 49.9008 33.7184L50.9785 32.6407C51.3679 32.2514 51.3692 31.6205 50.9815 31.2295L46.7621 26.9737V15.3086H41.8415V21.9683L32.0005 12Z" fill="#FE6100"/>
<path d="M33.8652 36.2454C33.8652 35.6931 34.3129 35.2454 34.8652 35.2454H41.052C41.6043 35.2454 42.052 35.6931 42.052 36.2454V42.5594C42.052 43.1116 41.6043 43.5594 41.052 43.5594H34.8652C34.313 43.5594 33.8652 43.1116 33.8652 42.5594V36.2454Z" fill="#FE6100"/>
<path d="M26.8789 37.1074C26.4402 37.1074 26.0194 37.2817 25.7091 37.592C25.3989 37.9022 25.2246 38.323 25.2246 38.7617C25.2246 39.2005 25.3989 39.6213 25.7091 39.9315C26.0194 40.2418 26.4402 40.4161 26.8789 40.4161C27.3177 40.4161 27.7385 40.2418 28.0487 39.9315C28.3589 39.6213 28.5332 39.2005 28.5332 38.7617C28.5332 38.323 28.3589 37.9022 28.0487 37.592C27.7385 37.2817 27.3177 37.1074 26.8789 37.1074Z" fill="white"/>
<defs>
<filter id="filter0_d_1155_42205" x="9.72852" y="11" width="44.543" height="46" filterUnits="userSpaceOnUse" color-interpolation-filters="sRGB">
<feFlood flood-opacity="0" result="BackgroundImageFix"/>
<feColorMatrix in="SourceAlpha" type="matrix" values="0 0 0 0 0 0 0 0 0 0 0 0 0 0 0 0 0 0 127 0" result="hardAlpha"/>
<feOffset dy="2"/>
<feGaussianBlur stdDeviation="1.5"/>
<feComposite in2="hardAlpha" operator="out"/>
<feColorMatrix type="matrix" values="0 0 0 0 0 0 0 0 0 0 0 0 0 0 0 0 0 0 0.06 0"/>
<feBlend mode="normal" in2="BackgroundImageFix" result="effect1_dropShadow_1155_42205"/>
<feBlend mode="normal" in="SourceGraphic" in2="effect1_dropShadow_1155_42205" result="shape"/>
</filter>
</defs>
</svg>
