<svg width="17" height="17" viewBox="0 0 17 17" fill="none" xmlns="http://www.w3.org/2000/svg">
<path d="M13.8535 1L15.4561 2.60258C15.5013 2.64771 15.5372 2.70132 15.5616 2.76032C15.5861 2.81933 15.5987 2.88258 15.5987 2.94645C15.5987 3.01033 15.5861 3.07358 15.5616 3.13258C15.5372 3.19159 15.5013 3.24519 15.4561 3.29033L13.8535 4.8929" stroke="#8D8D91" stroke-width="1.2" stroke-linecap="round" stroke-linejoin="round"/>
<path d="M2.94629 15.5987V3.92C2.94629 3.66189 3.04882 3.41434 3.23134 3.23183C3.41386 3.04931 3.6614 2.94678 3.91952 2.94678H15.5982" stroke="#8D8D91" stroke-width="1.2" stroke-linecap="round" stroke-linejoin="round"/>
<path d="M4.8929 13.854L3.29097 15.4559C3.24578 15.5012 3.19213 15.537 3.13307 15.5615C3.07401 15.586 3.01071 15.5986 2.94678 15.5986C2.88285 15.5986 2.81955 15.586 2.76049 15.5615C2.70143 15.537 2.64777 15.5012 2.60258 15.4559L1 13.854" stroke="#8D8D91" stroke-width="1.2" stroke-linecap="round" stroke-linejoin="round"/>
<path d="M14.625 15.5987C14.8831 15.5987 15.1307 15.4962 15.3132 15.3137C15.4957 15.1311 15.5982 14.8836 15.5982 14.6255" stroke="#8D8D91" stroke-width="1.2" stroke-linecap="round" stroke-linejoin="round"/>
<path d="M12.6793 15.5986H11.7061" stroke="#8D8D91" stroke-width="1.2" stroke-linecap="round" stroke-linejoin="round"/>
<path d="M9.75936 15.5986H8.78613" stroke="#8D8D91" stroke-width="1.2" stroke-linecap="round" stroke-linejoin="round"/>
<path d="M6.83944 15.5986H5.86621" stroke="#8D8D91" stroke-width="1.2" stroke-linecap="round" stroke-linejoin="round"/>
<path d="M15.5986 12.6788V11.7056" stroke="#8D8D91" stroke-width="1.2" stroke-linecap="round" stroke-linejoin="round"/>
<path d="M15.5986 9.75887V8.78564" stroke="#8D8D91" stroke-width="1.2" stroke-linecap="round" stroke-linejoin="round"/>
<path d="M15.5986 6.83944V5.86621" stroke="#8D8D91" stroke-width="1.2" stroke-linecap="round" stroke-linejoin="round"/>
</svg>
