<?xml version="1.0" encoding="UTF-8"?>
<!DOCTYPE svg PUBLIC "-//W3C//DTD SVG 1.1//EN" "http://www.w3.org/Graphics/SVG/1.1/DTD/svg11.dtd">
<svg xmlns="http://www.w3.org/2000/svg" version="1.1" width="1338px" height="472px" style="shape-rendering:geometricPrecision; text-rendering:geometricPrecision; image-rendering:optimizeQuality; fill-rule:evenodd; clip-rule:evenodd" xmlns:xlink="http://www.w3.org/1999/xlink">
<g><path style="opacity:0.999" fill="#fefefe" d="M -0.5,-0.5 C 413.167,-0.5 826.833,-0.5 1240.5,-0.5C 1272.27,74.8236 1304.6,149.824 1337.5,224.5C 1337.5,226.833 1337.5,229.167 1337.5,231.5C 1305.46,311.266 1273.8,391.266 1242.5,471.5C 828.167,471.5 413.833,471.5 -0.5,471.5C -0.5,314.167 -0.5,156.833 -0.5,-0.5 Z"/></g>
<g><path style="opacity:1" fill="#010101" d="M 53.5,53.5 C 266.501,53.1667 479.501,53.5 692.5,54.5C 717.875,112.791 743.542,170.958 769.5,229C 743.676,292.142 718.009,355.309 692.5,418.5C 479.5,418.5 266.5,418.5 53.5,418.5C 53.5,296.833 53.5,175.167 53.5,53.5 Z"/></g>
<g><path style="opacity:1" fill="#51b848" d="M 1203.5,417.5 C 1052.67,417.833 901.999,417.5 751.5,416.5C 776.73,354.315 802.063,292.149 827.5,230C 802.107,171.213 776.44,112.547 750.5,54C 901.833,53.5 1053.17,53.3333 1204.5,53.5C 1229.44,111.706 1254.1,170.04 1278.5,228.5C 1254.07,291.815 1229.07,354.815 1203.5,417.5 Z"/></g>
<g><path style="opacity:1" fill="#fdfefd" d="M 869.5,132.5 C 905.502,132.333 941.502,132.5 977.5,133C 1014.85,137.343 1032.02,158.176 1029,195.5C 1026.39,209.105 1018.89,218.938 1006.5,225C 1026.22,234.597 1036.22,250.43 1036.5,272.5C 1035.25,302.179 1020.59,321.679 992.5,331C 987.877,331.958 983.21,332.625 978.5,333C 942.168,333.5 905.835,333.667 869.5,333.5C 869.5,266.5 869.5,199.5 869.5,132.5 Z"/></g>
<g><path style="opacity:1" fill="#fcfcfc" d="M 133.5,134.5 C 170.502,134.333 207.502,134.5 244.5,135C 284.808,142.775 299.975,166.609 290,206.5C 285.833,216 279,222.833 269.5,227C 290.375,236.062 300.375,252.062 299.5,275C 298.913,301.525 286.58,320.192 262.5,331C 253.014,333.649 243.347,335.316 233.5,336C 200.168,336.5 166.835,336.667 133.5,336.5C 133.5,269.167 133.5,201.833 133.5,134.5 Z"/></g>
<g><path style="opacity:1" fill="#fcfcfc" d="M 367.5,170.5 C 366.504,184.323 366.171,198.323 366.5,212.5C 399.167,212.5 431.833,212.5 464.5,212.5C 464.5,224.167 464.5,235.833 464.5,247.5C 431.996,247.168 399.662,247.502 367.5,248.5C 367.5,265.5 367.5,282.5 367.5,299.5C 404.5,299.5 441.5,299.5 478.5,299.5C 478.5,311.833 478.5,324.167 478.5,336.5C 427.5,336.5 376.5,336.5 325.5,336.5C 325.5,269.167 325.5,201.833 325.5,134.5C 374.833,134.5 424.167,134.5 473.5,134.5C 473.5,146.5 473.5,158.5 473.5,170.5C 438.167,170.5 402.833,170.5 367.5,170.5 Z"/></g>
<g><path style="opacity:1" fill="#fdfdfd" d="M 670.5,330.5 C 670.5,332.167 670.5,333.833 670.5,335.5C 655.167,335.5 639.833,335.5 624.5,335.5C 622.317,328.44 620.817,321.107 620,313.5C 619.929,299.445 619.262,285.445 618,271.5C 615.094,263.288 609.261,258.788 600.5,258C 596.514,257.501 592.514,257.334 588.5,257.5C 573.676,256.504 558.676,256.171 543.5,256.5C 543.5,282.833 543.5,309.167 543.5,335.5C 530.01,336.496 516.344,336.829 502.5,336.5C 502.5,269.167 502.5,201.833 502.5,134.5C 540.501,134.333 578.501,134.5 616.5,135C 643.813,138.651 660.646,153.817 667,180.5C 669.68,197.482 666.014,212.816 656,226.5C 650.872,231.797 645.038,236.13 638.5,239.5C 651.263,245.001 658.763,254.667 661,268.5C 661.295,284.85 661.961,301.183 663,317.5C 663.008,323.436 665.508,327.77 670.5,330.5 Z"/></g>
<g><path style="opacity:1" fill="#fdfefd" d="M 1058.5,273.5 C 1071.17,273.5 1083.83,273.5 1096.5,273.5C 1096.22,275.415 1096.55,277.081 1097.5,278.5C 1097.79,292.6 1104.45,302.1 1117.5,307C 1144.84,308.91 1157.34,296.077 1155,268.5C 1153.53,264.221 1151.53,260.221 1149,256.5C 1145.4,253.9 1141.57,251.734 1137.5,250C 1128.65,247.664 1119.65,246.497 1110.5,246.5C 1110.5,237.167 1110.5,227.833 1110.5,218.5C 1120.57,219.435 1130.24,217.935 1139.5,214C 1146.59,208.491 1150.25,201.158 1150.5,192C 1147.67,170.569 1135.67,162.569 1114.5,168C 1105.85,172.115 1100.68,178.949 1099,188.5C 1098.5,191.817 1098.33,195.15 1098.5,198.5C 1086.5,198.5 1074.5,198.5 1062.5,198.5C 1062.5,196.167 1062.5,193.833 1062.5,191.5C 1064.42,160.833 1080.42,142.333 1110.5,136C 1131.6,132.193 1151.26,135.859 1169.5,147C 1189.48,164.419 1194.65,185.585 1185,210.5C 1180.31,218.024 1174.14,224.024 1166.5,228.5C 1181.99,234.824 1191.49,246.157 1195,262.5C 1199.68,295.647 1187.18,319.48 1157.5,334C 1130.46,343.442 1104.8,340.775 1080.5,326C 1064.91,312.072 1057.57,294.572 1058.5,273.5 Z"/></g>
<g><path style="opacity:1" fill="#52b849" d="M 910.5,167.5 C 931.536,167.084 952.536,167.584 973.5,169C 987.088,173.336 991.922,182.503 988,196.5C 983.865,205.607 976.698,210.441 966.5,211C 947.836,211.5 929.17,211.667 910.5,211.5C 910.5,196.833 910.5,182.167 910.5,167.5 Z"/></g>
<g><path style="opacity:1" fill="#000000" d="M 174.5,169.5 C 193.503,169.333 212.503,169.5 231.5,170C 248.396,171.615 255.229,180.782 252,197.5C 247.461,207.52 239.628,212.52 228.5,212.5C 210.5,212.5 192.5,212.5 174.5,212.5C 174.5,198.167 174.5,183.833 174.5,169.5 Z"/></g>
<g><path style="opacity:1" fill="#020202" d="M 543.5,169.5 C 563.836,169.333 584.169,169.5 604.5,170C 621.355,174.855 628.188,186.021 625,203.5C 622.993,212.715 617.493,218.549 608.5,221C 586.887,222.456 565.22,222.956 543.5,222.5C 543.5,204.833 543.5,187.167 543.5,169.5 Z"/></g>
<g><path style="opacity:1" fill="#a9dba4" d="M 1062.5,191.5 C 1062.5,193.833 1062.5,196.167 1062.5,198.5C 1074.5,198.5 1086.5,198.5 1098.5,198.5C 1086.34,199.495 1074.01,199.829 1061.5,199.5C 1061.19,196.615 1061.53,193.948 1062.5,191.5 Z"/></g>
<g><path style="opacity:1" fill="#4d4d4d" d="M 367.5,170.5 C 367.5,184.167 367.5,197.833 367.5,211.5C 400.338,211.168 433.004,211.502 465.5,212.5C 465.167,212.5 464.833,212.5 464.5,212.5C 431.833,212.5 399.167,212.5 366.5,212.5C 366.171,198.323 366.504,184.323 367.5,170.5 Z"/></g>
<g><path style="opacity:1" fill="#555555" d="M 174.5,169.5 C 174.5,183.833 174.5,198.167 174.5,212.5C 192.5,212.5 210.5,212.5 228.5,212.5C 210.341,213.497 192.008,213.83 173.5,213.5C 173.171,198.657 173.504,183.99 174.5,169.5 Z"/></g>
<g><path style="opacity:1" fill="#51b848" d="M 910.5,245.5 C 930.169,245.333 949.836,245.5 969.5,246C 989.071,248.907 996.904,260.074 993,279.5C 989.952,289.882 983.119,296.049 972.5,298C 951.836,298.5 931.169,298.667 910.5,298.5C 910.5,280.833 910.5,263.167 910.5,245.5 Z"/></g>
<g><path style="opacity:1" fill="#000000" d="M 174.5,247.5 C 195.887,247.045 217.22,247.545 238.5,249C 253.961,253.408 260.127,263.575 257,279.5C 254.49,291.179 247.323,298.012 235.5,300C 215.169,300.5 194.836,300.667 174.5,300.5C 174.5,282.833 174.5,265.167 174.5,247.5 Z"/></g>
<g><path style="opacity:1" fill="#bebebe" d="M 464.5,212.5 C 464.833,212.5 465.167,212.5 465.5,212.5C 465.5,224.5 465.5,236.5 465.5,248.5C 432.833,248.5 400.167,248.5 367.5,248.5C 399.662,247.502 431.996,247.168 464.5,247.5C 464.5,235.833 464.5,224.167 464.5,212.5 Z"/></g>
<g><path style="opacity:1" fill="#4f4f4f" d="M 588.5,257.5 C 573.833,257.5 559.167,257.5 544.5,257.5C 544.831,283.672 544.498,309.672 543.5,335.5C 543.5,309.167 543.5,282.833 543.5,256.5C 558.676,256.171 573.676,256.504 588.5,257.5 Z"/></g>
<g><path style="opacity:1" fill="#cdeacb" d="M 1058.5,273.5 C 1071.32,272.505 1084.32,272.171 1097.5,272.5C 1097.5,274.5 1097.5,276.5 1097.5,278.5C 1096.55,277.081 1096.22,275.415 1096.5,273.5C 1083.83,273.5 1071.17,273.5 1058.5,273.5 Z"/></g>
<g><path style="opacity:1" fill="#7e7e7e" d="M 670.5,330.5 C 671.461,332.265 671.795,334.265 671.5,336.5C 655.658,336.83 639.991,336.496 624.5,335.5C 639.833,335.5 655.167,335.5 670.5,335.5C 670.5,333.833 670.5,332.167 670.5,330.5 Z"/></g>
<g><path style="opacity:1" fill="#7bc974" d="M 751.5,416.5 C 901.999,417.5 1052.67,417.833 1203.5,417.5C 1052.67,418.833 901.666,418.833 750.5,417.5C 750.624,416.893 750.957,416.56 751.5,416.5 Z"/></g>
</svg>
