<?xml version="1.0" encoding="UTF-8"?>
<!DOCTYPE svg PUBLIC "-//W3C//DTD SVG 1.1//EN" "http://www.w3.org/Graphics/SVG/1.1/DTD/svg11.dtd">
<svg xmlns="http://www.w3.org/2000/svg" version="1.1" width="1338px" height="472px" style="shape-rendering:geometricPrecision; text-rendering:geometricPrecision; image-rendering:optimizeQuality; fill-rule:evenodd; clip-rule:evenodd" xmlns:xlink="http://www.w3.org/1999/xlink">
<g><path style="opacity:0.999" fill="#fefefe" d="M -0.5,-0.5 C 413.167,-0.5 826.833,-0.5 1240.5,-0.5C 1272.27,74.8236 1304.6,149.824 1337.5,224.5C 1337.5,226.833 1337.5,229.167 1337.5,231.5C 1305.46,311.266 1273.8,391.266 1242.5,471.5C 828.167,471.5 413.833,471.5 -0.5,471.5C -0.5,314.167 -0.5,156.833 -0.5,-0.5 Z"/></g>
<g><path style="opacity:1" fill="#010101" d="M 53.5,53.5 C 266.501,53.1667 479.501,53.5 692.5,54.5C 717.875,112.791 743.542,170.958 769.5,229C 743.676,292.142 718.009,355.309 692.5,418.5C 479.5,418.5 266.5,418.5 53.5,418.5C 53.5,296.833 53.5,175.167 53.5,53.5 Z"/></g>
<g><path style="opacity:1" fill="#fef100" d="M 1203.5,417.5 C 1052.5,418.165 901.83,417.499 751.5,415.5C 776.824,353.516 802.157,291.516 827.5,229.5C 802.111,171.054 776.444,112.721 750.5,54.5C 901.833,53.1667 1053.17,53.1667 1204.5,54.5C 1229.37,112.407 1254.37,170.24 1279.5,228C 1254.54,291.41 1229.2,354.576 1203.5,417.5 Z"/></g>
<g><path style="opacity:1" fill="#010100" d="M 870.5,132.5 C 903.168,132.333 935.835,132.5 968.5,133C 1005.47,137.63 1028.3,158.13 1037,194.5C 1043.85,226.355 1041.19,257.355 1029,287.5C 1016.54,315.483 995.039,330.816 964.5,333.5C 933.167,333.5 901.833,333.5 870.5,333.5C 870.5,266.5 870.5,199.5 870.5,132.5 Z"/></g>
<g><path style="opacity:1" fill="#fcfcfc" d="M 133.5,134.5 C 170.502,134.333 207.502,134.5 244.5,135C 284.808,142.775 299.975,166.609 290,206.5C 285.833,216 279,222.833 269.5,227C 290.375,236.062 300.375,252.062 299.5,275C 298.913,301.525 286.58,320.192 262.5,331C 253.014,333.649 243.347,335.316 233.5,336C 200.168,336.5 166.835,336.667 133.5,336.5C 133.5,269.167 133.5,201.833 133.5,134.5 Z"/></g>
<g><path style="opacity:1" fill="#fcfcfc" d="M 367.5,170.5 C 366.504,184.323 366.171,198.323 366.5,212.5C 399.167,212.5 431.833,212.5 464.5,212.5C 464.5,224.167 464.5,235.833 464.5,247.5C 431.996,247.168 399.662,247.502 367.5,248.5C 367.5,265.5 367.5,282.5 367.5,299.5C 404.5,299.5 441.5,299.5 478.5,299.5C 478.5,311.833 478.5,324.167 478.5,336.5C 427.5,336.5 376.5,336.5 325.5,336.5C 325.5,269.167 325.5,201.833 325.5,134.5C 374.833,134.5 424.167,134.5 473.5,134.5C 473.5,146.5 473.5,158.5 473.5,170.5C 438.167,170.5 402.833,170.5 367.5,170.5 Z"/></g>
<g><path style="opacity:1" fill="#fdfdfd" d="M 670.5,330.5 C 670.5,332.167 670.5,333.833 670.5,335.5C 655.167,335.5 639.833,335.5 624.5,335.5C 622.317,328.44 620.817,321.107 620,313.5C 619.929,299.445 619.262,285.445 618,271.5C 615.094,263.288 609.261,258.788 600.5,258C 596.514,257.501 592.514,257.334 588.5,257.5C 573.676,256.504 558.676,256.171 543.5,256.5C 543.5,282.833 543.5,309.167 543.5,335.5C 530.01,336.496 516.344,336.829 502.5,336.5C 502.5,269.167 502.5,201.833 502.5,134.5C 540.501,134.333 578.501,134.5 616.5,135C 643.813,138.651 660.646,153.817 667,180.5C 669.68,197.482 666.014,212.816 656,226.5C 650.872,231.797 645.038,236.13 638.5,239.5C 651.263,245.001 658.763,254.667 661,268.5C 661.295,284.85 661.961,301.183 663,317.5C 663.008,323.436 665.508,327.77 670.5,330.5 Z"/></g>
<g><path style="opacity:1" fill="#010100" d="M 1099.5,195.5 C 1098.52,198.287 1098.19,201.287 1098.5,204.5C 1085.83,204.5 1073.17,204.5 1060.5,204.5C 1061.45,156.047 1086.12,132.88 1134.5,135C 1177.94,141.752 1197.44,166.918 1193,210.5C 1189.57,226.858 1181.4,240.358 1168.5,251C 1153.68,261.912 1138.68,272.579 1123.5,283C 1117.65,287.354 1112.65,292.52 1108.5,298.5C 1137.16,299.5 1165.83,299.833 1194.5,299.5C 1194.5,310.833 1194.5,322.167 1194.5,333.5C 1149.17,333.5 1103.83,333.5 1058.5,333.5C 1057.85,313.61 1063.69,295.943 1076,280.5C 1081.5,274.333 1087.33,268.5 1093.5,263C 1108.78,252.051 1123.78,240.718 1138.5,229C 1154.57,215.29 1158.41,198.79 1150,179.5C 1141.47,169.317 1130.63,165.817 1117.5,169C 1105.67,173.817 1099.67,182.651 1099.5,195.5 Z"/></g>
<g><path style="opacity:1" fill="#fdf000" d="M 911.5,167.5 C 929.871,167.098 948.204,167.598 966.5,169C 983.641,176.068 993.475,188.901 996,207.5C 998.612,227.031 997.612,246.365 993,265.5C 987.692,283.143 976.192,294.31 958.5,299C 942.837,299.5 927.17,299.667 911.5,299.5C 911.5,255.5 911.5,211.5 911.5,167.5 Z"/></g>
<g><path style="opacity:1" fill="#000000" d="M 174.5,169.5 C 193.503,169.333 212.503,169.5 231.5,170C 248.396,171.615 255.229,180.782 252,197.5C 247.461,207.52 239.628,212.52 228.5,212.5C 210.5,212.5 192.5,212.5 174.5,212.5C 174.5,198.167 174.5,183.833 174.5,169.5 Z"/></g>
<g><path style="opacity:1" fill="#020202" d="M 543.5,169.5 C 563.836,169.333 584.169,169.5 604.5,170C 621.355,174.855 628.188,186.021 625,203.5C 622.993,212.715 617.493,218.549 608.5,221C 586.887,222.456 565.22,222.956 543.5,222.5C 543.5,204.833 543.5,187.167 543.5,169.5 Z"/></g>
<g><path style="opacity:1" fill="#474401" d="M 1099.5,195.5 C 1099.5,198.833 1099.5,202.167 1099.5,205.5C 1086.32,205.829 1073.32,205.495 1060.5,204.5C 1073.17,204.5 1085.83,204.5 1098.5,204.5C 1098.19,201.287 1098.52,198.287 1099.5,195.5 Z"/></g>
<g><path style="opacity:1" fill="#4d4d4d" d="M 367.5,170.5 C 367.5,184.167 367.5,197.833 367.5,211.5C 400.338,211.168 433.004,211.502 465.5,212.5C 465.167,212.5 464.833,212.5 464.5,212.5C 431.833,212.5 399.167,212.5 366.5,212.5C 366.171,198.323 366.504,184.323 367.5,170.5 Z"/></g>
<g><path style="opacity:1" fill="#555555" d="M 174.5,169.5 C 174.5,183.833 174.5,198.167 174.5,212.5C 192.5,212.5 210.5,212.5 228.5,212.5C 210.341,213.497 192.008,213.83 173.5,213.5C 173.171,198.657 173.504,183.99 174.5,169.5 Z"/></g>
<g><path style="opacity:1" fill="#000000" d="M 174.5,247.5 C 195.887,247.045 217.22,247.545 238.5,249C 253.961,253.408 260.127,263.575 257,279.5C 254.49,291.179 247.323,298.012 235.5,300C 215.169,300.5 194.836,300.667 174.5,300.5C 174.5,282.833 174.5,265.167 174.5,247.5 Z"/></g>
<g><path style="opacity:1" fill="#bebebe" d="M 464.5,212.5 C 464.833,212.5 465.167,212.5 465.5,212.5C 465.5,224.5 465.5,236.5 465.5,248.5C 432.833,248.5 400.167,248.5 367.5,248.5C 399.662,247.502 431.996,247.168 464.5,247.5C 464.5,235.833 464.5,224.167 464.5,212.5 Z"/></g>
<g><path style="opacity:1" fill="#4f4f4f" d="M 588.5,257.5 C 573.833,257.5 559.167,257.5 544.5,257.5C 544.831,283.672 544.498,309.672 543.5,335.5C 543.5,309.167 543.5,282.833 543.5,256.5C 558.676,256.171 573.676,256.504 588.5,257.5 Z"/></g>
<g><path style="opacity:1" fill="#645f00" d="M 870.5,132.5 C 870.5,199.5 870.5,266.5 870.5,333.5C 901.833,333.5 933.167,333.5 964.5,333.5C 933.004,334.498 901.338,334.832 869.5,334.5C 869.168,266.998 869.501,199.665 870.5,132.5 Z"/></g>
<g><path style="opacity:1" fill="#7e7e7e" d="M 670.5,330.5 C 671.461,332.265 671.795,334.265 671.5,336.5C 655.658,336.83 639.991,336.496 624.5,335.5C 639.833,335.5 655.167,335.5 670.5,335.5C 670.5,333.833 670.5,332.167 670.5,330.5 Z"/></g>
<g><path style="opacity:1" fill="#fff53f" d="M 751.5,415.5 C 901.83,417.499 1052.5,418.165 1203.5,417.5C 1052.67,418.5 901.668,418.833 750.5,418.5C 750.263,417.209 750.596,416.209 751.5,415.5 Z"/></g>
</svg>
