<?xml version="1.0" encoding="UTF-8"?>
<!DOCTYPE svg PUBLIC "-//W3C//DTD SVG 1.1//EN" "http://www.w3.org/Graphics/SVG/1.1/DTD/svg11.dtd">
<svg xmlns="http://www.w3.org/2000/svg" version="1.1" width="1338px" height="472px" style="shape-rendering:geometricPrecision; text-rendering:geometricPrecision; image-rendering:optimizeQuality; fill-rule:evenodd; clip-rule:evenodd" xmlns:xlink="http://www.w3.org/1999/xlink">
<g><path style="opacity:0.999" fill="#fefefe" d="M -0.5,-0.5 C 413.167,-0.5 826.833,-0.5 1240.5,-0.5C 1272.27,74.8236 1304.6,149.824 1337.5,224.5C 1337.5,226.833 1337.5,229.167 1337.5,231.5C 1305.46,311.266 1273.8,391.266 1242.5,471.5C 828.167,471.5 413.833,471.5 -0.5,471.5C -0.5,314.167 -0.5,156.833 -0.5,-0.5 Z"/></g>
<g><path style="opacity:1" fill="#010101" d="M 53.5,53.5 C 266.501,53.1667 479.501,53.5 692.5,54.5C 717.875,112.791 743.542,170.958 769.5,229C 743.676,292.142 718.009,355.309 692.5,418.5C 479.5,418.5 266.5,418.5 53.5,418.5C 53.5,296.833 53.5,175.167 53.5,53.5 Z"/></g>
<g><path style="opacity:1" fill="#f27021" d="M 1203.5,417.5 C 1052.67,417.833 901.999,417.5 751.5,416.5C 776.96,354.41 802.293,292.243 827.5,230C 802.657,170.979 776.99,112.313 750.5,54C 901.5,53.3333 1052.5,53.3333 1203.5,54C 1229.18,111.885 1254.18,170.052 1278.5,228.5C 1253.74,291.681 1228.74,354.681 1203.5,417.5 Z"/></g>
<g><path style="opacity:1" fill="#000000" d="M 963.5,132.5 C 1011.17,132.5 1058.83,132.5 1106.5,132.5C 1106.5,144.5 1106.5,156.5 1106.5,168.5C 1072.83,168.5 1039.17,168.5 1005.5,168.5C 1005.5,183.5 1005.5,198.5 1005.5,213.5C 1035.17,213.5 1064.83,213.5 1094.5,213.5C 1094.5,225.5 1094.5,237.5 1094.5,249.5C 1064.83,249.5 1035.17,249.5 1005.5,249.5C 1005.5,277.5 1005.5,305.5 1005.5,333.5C 991.5,333.5 977.5,333.5 963.5,333.5C 963.5,266.5 963.5,199.5 963.5,132.5 Z"/></g>
<g><path style="opacity:1" fill="#fcfcfc" d="M 133.5,134.5 C 170.502,134.333 207.502,134.5 244.5,135C 284.808,142.775 299.975,166.609 290,206.5C 285.833,216 279,222.833 269.5,227C 290.375,236.062 300.375,252.062 299.5,275C 298.913,301.525 286.58,320.192 262.5,331C 253.014,333.649 243.347,335.316 233.5,336C 200.168,336.5 166.835,336.667 133.5,336.5C 133.5,269.167 133.5,201.833 133.5,134.5 Z"/></g>
<g><path style="opacity:1" fill="#fcfcfc" d="M 367.5,170.5 C 366.504,184.323 366.171,198.323 366.5,212.5C 399.167,212.5 431.833,212.5 464.5,212.5C 464.5,224.167 464.5,235.833 464.5,247.5C 431.996,247.168 399.662,247.502 367.5,248.5C 367.5,265.5 367.5,282.5 367.5,299.5C 404.5,299.5 441.5,299.5 478.5,299.5C 478.5,311.833 478.5,324.167 478.5,336.5C 427.5,336.5 376.5,336.5 325.5,336.5C 325.5,269.167 325.5,201.833 325.5,134.5C 374.833,134.5 424.167,134.5 473.5,134.5C 473.5,146.5 473.5,158.5 473.5,170.5C 438.167,170.5 402.833,170.5 367.5,170.5 Z"/></g>
<g><path style="opacity:1" fill="#fdfdfd" d="M 670.5,330.5 C 670.5,332.167 670.5,333.833 670.5,335.5C 655.167,335.5 639.833,335.5 624.5,335.5C 622.317,328.44 620.817,321.107 620,313.5C 619.929,299.445 619.262,285.445 618,271.5C 615.094,263.288 609.261,258.788 600.5,258C 596.514,257.501 592.514,257.334 588.5,257.5C 573.676,256.504 558.676,256.171 543.5,256.5C 543.5,282.833 543.5,309.167 543.5,335.5C 530.01,336.496 516.344,336.829 502.5,336.5C 502.5,269.167 502.5,201.833 502.5,134.5C 540.501,134.333 578.501,134.5 616.5,135C 643.813,138.651 660.646,153.817 667,180.5C 669.68,197.482 666.014,212.816 656,226.5C 650.872,231.797 645.038,236.13 638.5,239.5C 651.263,245.001 658.763,254.667 661,268.5C 661.295,284.85 661.961,301.183 663,317.5C 663.008,323.436 665.508,327.77 670.5,330.5 Z"/></g>
<g><path style="opacity:1" fill="#000000" d="M 174.5,169.5 C 193.503,169.333 212.503,169.5 231.5,170C 248.396,171.615 255.229,180.782 252,197.5C 247.461,207.52 239.628,212.52 228.5,212.5C 210.5,212.5 192.5,212.5 174.5,212.5C 174.5,198.167 174.5,183.833 174.5,169.5 Z"/></g>
<g><path style="opacity:1" fill="#020202" d="M 543.5,169.5 C 563.836,169.333 584.169,169.5 604.5,170C 621.355,174.855 628.188,186.021 625,203.5C 622.993,212.715 617.493,218.549 608.5,221C 586.887,222.456 565.22,222.956 543.5,222.5C 543.5,204.833 543.5,187.167 543.5,169.5 Z"/></g>
<g><path style="opacity:1" fill="#4d4d4d" d="M 367.5,170.5 C 367.5,184.167 367.5,197.833 367.5,211.5C 400.338,211.168 433.004,211.502 465.5,212.5C 465.167,212.5 464.833,212.5 464.5,212.5C 431.833,212.5 399.167,212.5 366.5,212.5C 366.171,198.323 366.504,184.323 367.5,170.5 Z"/></g>
<g><path style="opacity:1" fill="#555555" d="M 174.5,169.5 C 174.5,183.833 174.5,198.167 174.5,212.5C 192.5,212.5 210.5,212.5 228.5,212.5C 210.341,213.497 192.008,213.83 173.5,213.5C 173.171,198.657 173.504,183.99 174.5,169.5 Z"/></g>
<g><path style="opacity:1" fill="#000000" d="M 174.5,247.5 C 195.887,247.045 217.22,247.545 238.5,249C 253.961,253.408 260.127,263.575 257,279.5C 254.49,291.179 247.323,298.012 235.5,300C 215.169,300.5 194.836,300.667 174.5,300.5C 174.5,282.833 174.5,265.167 174.5,247.5 Z"/></g>
<g><path style="opacity:1" fill="#bebebe" d="M 464.5,212.5 C 464.833,212.5 465.167,212.5 465.5,212.5C 465.5,224.5 465.5,236.5 465.5,248.5C 432.833,248.5 400.167,248.5 367.5,248.5C 399.662,247.502 431.996,247.168 464.5,247.5C 464.5,235.833 464.5,224.167 464.5,212.5 Z"/></g>
<g><path style="opacity:1" fill="#4f4f4f" d="M 588.5,257.5 C 573.833,257.5 559.167,257.5 544.5,257.5C 544.831,283.672 544.498,309.672 543.5,335.5C 543.5,309.167 543.5,282.833 543.5,256.5C 558.676,256.171 573.676,256.504 588.5,257.5 Z"/></g>
<g><path style="opacity:1" fill="#7e7e7e" d="M 670.5,330.5 C 671.461,332.265 671.795,334.265 671.5,336.5C 655.658,336.83 639.991,336.496 624.5,335.5C 639.833,335.5 655.167,335.5 670.5,335.5C 670.5,333.833 670.5,332.167 670.5,330.5 Z"/></g>
<g><path style="opacity:1" fill="#f59357" d="M 751.5,416.5 C 901.999,417.5 1052.67,417.833 1203.5,417.5C 1052.67,418.833 901.666,418.833 750.5,417.5C 750.624,416.893 750.957,416.56 751.5,416.5 Z"/></g>
</svg>
